<?xml version="1.0" encoding="UTF-8"?>
<svg version="1.1" viewBox="0 0 2048 2048" width="128" height="128" xmlns="http://www.w3.org/2000/svg">
<path transform="translate(768)" d="m0 0h162l8 4 35 7 40 10 29 9 27 9 29 12 29 14 26 14 22 14 22 15 16 12 13 10 14 12 11 9 17 16 27 27 9 11 9 10 13 17 10 13 12 17 10 15 12 20 10 18 12 23 12 27 12 31 8 24 10 37 6 29 6 39 4 44 1 27v118l4 4 24 13 27 16 17 12 14 10 16 13 14 12 7 7 6 5 7 8 11 11v2h2l11 14 10 12 14 20 9 14 12 21 12 23 2 5v3l-3 1h-27l-142-1h-153l-24 3-22 5-24 8-19 8-16 8-18 12-16 12-14 13-8 7-11 12-14 17-15 24-8 16-13 28-4 2-25 3-16 4-25 10-15 7-19 10-15 10-20 16h-2v2l-8 7-11 11-11 14-7 10-10 17-3 4-4-2-4-5-3-2v-2l-4-2-7-8-8-7-13-8-15-6-12-2h-16l-17 3-13 5-12 7-13 11-9 13-7 15-3 10-3 29-1 47v100l2 25 4 19 8 17 8 10 5 5 9 7 19 10 13 4 7 1h16l18-4 1 2v14l-6 56-6 44-5 41-5 60-1 18v44l3 25 6 27 7 21 13 29 14 23 9 12 13 16 7 7 5 6 11 9 12 10 15 10 15 9 18 10 16 9 11 9 6 8h-663l-35-9-47-14-25-9-27-12-16-8-16-9-14-9-17-12-16-13-9-7-14-12-16-15-5-5v-2h-2l-7-8-11-13-12-16-11-15-11-17-13-22-13-26-12-30-10-30-10-36-1-6h-2l-1-3v-655l4 3-1-4 2-2 11-41 12-36 8-19 8-17 10-19 9-15 7-11 12-17 9-12 11-14 8-8 6-8h2v-2h2v-2l8-7 12-12 8-7 17-14 15-11 15-10 15-9 34-18 8-5h2v-112l2-50 4-40 6-36 7-31 8-29 11-31 10-24 12-27 10-20 13-23 10-16 14-22 8-10 8-11 6-8 8-10 11-14 13-14 7-8 6-7 8-7 10-10 11-9 10-9 11-9 21-16 19-14 22-14 13-8 16-9 25-13 20-9 25-10 28-10 30-9 32-8 39-8zm54 171-37 4-26 5-30 8-30 10-25 11-22 11-17 10-14 9-12 8-19 14-15 13-12 11-25 25-7 8-14 17-9 12-10 14-17 28-10 19-11 23-11 29-8 27-7 30-3 17-3 32-1 25v90l21 1h828l1-1 1-18v-74l-3-39-5-37-7-30-6-21-13-34-12-25-11-21-13-21-11-16-11-14-8-10-10-11-7-8-21-21-11-9-13-11-18-13-21-14-19-11-15-8-31-14-33-12-30-8-23-5-31-4-11-1z" fill="#FEFEFE"/>
<path transform="translate(1357,1108)" d="m0 0h13l15 2 15 5 14 8 14 12 10 14 7 14 4 13 2 18-1 20-4 30-5 35 257-1 9-1 6-52 7-49 7-20 5-9 9-12 7-7 10-7 14-7 12-4 13-2h15l16 3 15 6 10 6 13 11 8 10 8 14 6 16 2 16v14l-4 34-6 39 75 2 24 2 16 4 12 6 11 8 11 11 12 17 5 9 2 2v58l-1-3-2 1-6 11-9 14-9 10-10 8-12 6-19 5-15 2-20 1h-85l-5 39-8 75-7 54-9 73-3 13h79l24 1 16 3 13 5 11 7 11 10 10 13 8 16 4 14 1 6v21l-4 16-4 12-9 15-11 12-9 8-12 6-22 5-21 2-29 1h-23l-51-1-2 9-5 46-4 34-4 18-4 12-7 14-9 12-7 8-23 12-5 4 7-1 10-3-1 2-5 3-5 1h-58l-19-12-11-7-12-11-7-7-9-16-4-18v-26l7-56 3-18-266 1-4 36-8 56-4 20-6 14-10 15-8 9-13 8-11 7-2 3 1 2h-58l-11-9-17-10-13-11-6-8-8-15-5-15-1-5v-15l7-59 3-25-7 1h-87l-19-3-13-5-10-6-11-9-9-10-10-19-5-14-2-12v-12l2-16 5-15 8-16 11-13 11-8 10-6 11-4 15-3 10-1h32l69 1 8 1 3-24 9-68 13-108 4-32 2-23 1-4-15 2-42 1h-40l-14-1-19-5-15-8-12-11-8-10-8-13-6-16-3-15v-16l6-23 8-17 8-10 9-9 11-7 14-7 13-3 13-1h119l5-35 7-53 4-20 4-11 4-8 10-14 4-5 8-7 9-7 15-7 12-3zm63 342-5 44-7 51-9 85-7 51-2 19v6h261l4-1 7-45 11-95 13-100 1-5v-10z" fill="#FEFEFE"/>
<path transform="translate(947)" d="m0 0h24l-4 3-7-1-2 1h-6l-5-1z" fill="#fff"/>
<path transform="translate(333,2045)" d="m0 0 5 1 1 2-5-1z" fill="#fff"/>
<path transform="translate(758)" d="m0 0h2v2l3 1h-6z" fill="#fff"/>
<path transform="translate(364,2047)" d="m0 0h6v1h-6z" fill="#fff"/>
<path transform="translate(1675,2046)" d="m0 0h3v2h-3z" fill="#fff"/>
<path transform="translate(1235,2046)" d="m0 0h3v2h-3z" fill="#fff"/>
<path transform="translate(744)" d="m0 0h5v1h-5z" fill="#fff"/>
<path transform="translate(2047,1403)" d="m0 0 1 4z" fill="#fff"/>
<path transform="translate(931,1240)" d="m0 0 2 1-1 2z" fill="#fff"/>
<path transform="translate(939)" d="m0 0 3 1h-3z" fill="#fff"/>
<path transform="translate(331,2044)" d="m0 0 2 1-2 1z" fill="#fff"/>
<path transform="translate(341,2047)" d="m0 0 2 1z" fill="#fff"/>
<path transform="translate(4,1703)" d="m0 0" fill="#fff"/>
<path transform="translate(938,3)" d="m0 0 2 1z" fill="#fff"/>
<path transform="translate(1240,2047)" d="m0 0" fill="#fff"/>
<path transform="translate(346,2047)" d="m0 0" fill="#fff"/>
<path transform="translate(344,2047)" d="m0 0" fill="#fff"/>
<path transform="translate(332,2046)" d="m0 0" fill="#fff"/>
<path transform="translate(1743,2044)" d="m0 0" fill="#fff"/>
<path transform="translate(1744,2043)" d="m0 0" fill="#fff"/>
<path transform="translate(1227,2043)" d="m0 0" fill="#fff"/>
<path transform="translate(2,1693)" d="m0 0" fill="#fff"/>
<path transform="translate(2047,1333)" d="m0 0" fill="#fff"/>
<path transform="translate(0,1033)" d="m0 0" fill="#fff"/>
<path transform="translate(936,1)" d="m0 0" fill="#fff"/>
<path transform="translate(943)" d="m0 0" fill="#fff"/>
<path transform="translate(755)" d="m0 0" fill="#fff"/>
</svg>
