<svg width="27" height="25" viewBox="0 0 27 25" fill="none" xmlns="http://www.w3.org/2000/svg">
<path d="M15.4353 14.6432L15.4353 14.6432L15.433 14.6386L14.7406 13.2538C14.7405 13.2535 14.7403 13.2532 14.7402 13.253C14.5079 12.7864 14.0944 12.343 13.4993 12.343C12.905 12.343 12.4904 12.7855 12.2562 13.2514L12.2557 13.2526L11.5627 14.6386L11.5626 14.6386L11.5604 14.6432C11.5449 14.6748 11.531 14.7048 11.5197 14.7296C11.5186 14.7319 11.5176 14.7341 11.5166 14.7363L10.2219 14.9215L10.2148 14.9225L10.2077 14.9237C9.69763 15.0087 9.16888 15.2751 8.99153 15.8305C8.81547 16.3818 9.08668 16.9022 9.44821 17.2668L10.4751 18.3544C10.4748 18.3554 10.4746 18.3564 10.4744 18.3574C10.4727 18.365 10.4708 18.3732 10.4688 18.3821C10.4687 18.3828 10.4685 18.3835 10.4684 18.3842L10.1898 19.5888C10.1898 19.5888 10.1898 19.5889 10.1897 19.5889C10.0665 20.1214 10.0707 20.8077 10.5986 21.1929C11.1216 21.5745 11.77 21.3768 12.2397 21.1011L13.4648 20.4417L14.7669 21.1052C15.2351 21.3772 15.881 21.5746 16.4023 21.1945C16.9313 20.8088 16.9324 20.1205 16.81 19.5894L16.8099 19.5889L16.5312 18.3842C16.5311 18.3835 16.5309 18.3828 16.5308 18.3821C16.5289 18.3737 16.5271 18.3659 16.5255 18.3587C16.5252 18.3573 16.5249 18.356 16.5246 18.3547L17.5508 17.2675C17.9145 16.9027 18.1867 16.3817 18.0092 15.8293C17.8308 15.2745 17.3013 15.0086 16.7919 14.9237L16.7919 14.9236L16.7795 14.9218L15.4787 14.7317C15.4758 14.726 15.4728 14.7199 15.4696 14.7133C15.4578 14.6894 15.4499 14.673 15.4353 14.6432ZM0.625 5.4C0.625 3.88122 1.85622 2.65 3.375 2.65H6.125V3.7125C6.125 4.98966 7.16034 6.025 8.4375 6.025C9.71466 6.025 10.75 4.98966 10.75 3.7125V2.65H16.25V3.7125C16.25 4.98966 17.2853 6.025 18.5625 6.025C19.8397 6.025 20.875 4.98966 20.875 3.7125V2.65H23.625C25.1438 2.65 26.375 3.88122 26.375 5.4V8.15H0.625V5.4ZM3.375 23.675C1.85622 23.675 0.625 22.4438 0.625 20.925V10.075H26.375V20.925C26.375 22.4438 25.1438 23.675 23.625 23.675H3.375ZM8.05 1.0125C8.05 0.79849 8.22349 0.625 8.4375 0.625C8.65151 0.625 8.825 0.79849 8.825 1.0125V3.7125C8.825 3.92651 8.65151 4.1 8.4375 4.1C8.22349 4.1 8.05 3.92651 8.05 3.7125V1.0125ZM18.175 1.0125C18.175 0.798489 18.3485 0.625 18.5625 0.625C18.7765 0.625 18.95 0.79849 18.95 1.0125V3.7125C18.95 3.92651 18.7765 4.1 18.5625 4.1C18.3485 4.1 18.175 3.92651 18.175 3.7125V1.0125Z" stroke="#8E70D6" stroke-width="1.25"/>
</svg>
