<svg width="22" height="30" viewBox="0 0 22 30" fill="none" xmlns="http://www.w3.org/2000/svg">
<path d="M21 25.8103L21.6241 25.8432L21.625 25.8268V25.8103H21ZM18.013 28.6675V29.2925H18.0554L18.0974 29.2867L18.013 28.6675ZM3.85714 28.6675L3.73457 29.2803L3.79526 29.2925H3.85714V28.6675ZM1 25.8103H0.375V25.8449L0.378823 25.8793L1 25.8103ZM3.1034 14.8637C3.08265 15.2082 3.34514 15.5044 3.68969 15.5251C4.03424 15.5459 4.33039 15.2834 4.35114 14.9388L3.1034 14.8637ZM17.6484 14.8724C17.6325 15.2172 17.8991 15.5097 18.2439 15.5256C18.5887 15.5415 18.8811 15.2749 18.8971 14.9301L17.6484 14.8724ZM6.45455 5.03019L6.68587 5.6108L6.68587 5.6108L6.45455 5.03019ZM15.5556 5.03019L15.3251 5.61114L15.3251 5.61114L15.5556 5.03019ZM3.85714 19.5958C3.51197 19.5958 3.23214 19.8756 3.23214 20.2208C3.23214 20.566 3.51197 20.8458 3.85714 20.8458V19.5958ZM18.1429 20.8458C18.488 20.8458 18.7679 20.566 18.7679 20.2208C18.7679 19.8756 18.488 19.5958 18.1429 19.5958V20.8458ZM6.13771 21.7792C6.13771 22.1244 6.41753 22.4042 6.76271 22.4042C7.10789 22.4042 7.38771 22.1244 7.38771 21.7792H6.13771ZM20.375 12.6934V25.8103H21.625V12.6934H20.375ZM20.3759 25.7775C20.3441 26.3811 19.8434 27.7871 17.9285 28.0482L18.0974 29.2867C20.754 28.9245 21.5693 26.8846 21.6241 25.8432L20.3759 25.7775ZM18.013 28.0425H3.85714V29.2925H18.013V28.0425ZM3.97972 28.0546C3.63057 27.9848 3.06237 27.7749 2.56957 27.3851C2.08724 27.0035 1.70244 26.4727 1.62118 25.7413L0.378823 25.8793C0.505355 27.0181 1.11623 27.8292 1.79407 28.3654C2.46144 28.8934 3.21792 29.177 3.73457 29.2803L3.97972 28.0546ZM1.625 25.8103V12.8234H0.375V25.8103H1.625ZM4.35114 14.9388C4.50464 12.3907 5.45471 10.6886 6.72436 9.65047C8.00389 8.60424 9.67074 8.18108 11.3391 8.31636C14.7109 8.58975 17.8233 11.0829 17.6484 14.8724L18.8971 14.9301C19.1118 10.278 15.2761 7.38147 11.4401 7.07044C9.50459 6.91351 7.50261 7.39945 5.93311 8.68278C4.35374 9.97419 3.27458 12.0221 3.1034 14.8637L4.35114 14.9388ZM1.625 12.8234C1.625 9.15821 3.77931 6.76881 6.68587 5.6108L6.22322 4.44957C2.93655 5.75902 0.375 8.55105 0.375 12.8234H1.625ZM6.68587 5.6108C9.36536 4.54326 12.6452 4.54796 15.3251 5.61114L15.786 4.44924C12.8114 3.26913 9.20112 3.26314 6.22322 4.44957L6.68587 5.6108ZM15.3251 5.61114C18.2321 6.76443 20.375 9.12744 20.375 12.6934H21.625C21.625 8.50884 19.0623 5.74903 15.786 4.44924L15.3251 5.61114ZM7.07955 5.03019C7.07955 3.31864 8.72745 1.89515 10.6868 1.65779C11.6349 1.54293 12.5781 1.72615 13.332 2.25499C14.0765 2.77722 14.6996 3.6806 14.9389 5.13186L16.1722 4.92851C15.887 3.19838 15.1102 1.97546 14.0499 1.23167C12.999 0.494488 11.7325 0.271975 10.5365 0.416859C8.20761 0.698981 5.82955 2.45688 5.82955 5.03019H7.07955ZM5.28571 17.8638H16.7143V16.6138H5.28571V17.8638ZM18.1672 19.3168V23.9921H19.4172V19.3168H18.1672ZM16.7143 25.445H5.28571V26.695H16.7143V25.445ZM3.83279 23.9921V19.3168H2.58279V23.9921H3.83279ZM5.28571 25.445C4.48329 25.445 3.83279 24.7945 3.83279 23.9921H2.58279C2.58279 25.4849 3.79293 26.695 5.28571 26.695V25.445ZM18.1672 23.9921C18.1672 24.7945 17.5167 25.445 16.7143 25.445V26.695C18.2071 26.695 19.4172 25.4849 19.4172 23.9921H18.1672ZM16.7143 17.8638C17.5167 17.8638 18.1672 18.5143 18.1672 19.3168H19.4172C19.4172 17.824 18.2071 16.6138 16.7143 16.6138V17.8638ZM5.28571 16.6138C3.79293 16.6138 2.58279 17.824 2.58279 19.3168H3.83279C3.83279 18.5143 4.48329 17.8638 5.28571 17.8638V16.6138ZM3.85714 20.8458H6.76271V19.5958H3.85714V20.8458ZM6.76271 20.8458H18.1429V19.5958H6.76271V20.8458ZM6.13771 20.2208V21.7792H7.38771V20.2208H6.13771Z" fill="#150D28"/>
</svg>
