<svg width="26" height="26" viewBox="0 0 26 26" fill="none" xmlns="http://www.w3.org/2000/svg">
<path d="M24.6663 15.3332V9.49984C24.6663 3.6665 22.333 1.33317 16.4997 1.33317H9.49968C3.66634 1.33317 1.33301 3.6665 1.33301 9.49984L1.33301 16.4998C1.33301 22.3332 3.66634 24.6665 9.49968 24.6665H15.333" stroke="#6EC9BF" stroke-width="1.5" stroke-linecap="round" stroke-linejoin="round"/>
<path d="M24.6663 15.3332H19.9997C16.4997 15.3332 15.333 16.4998 15.333 19.9998L15.333 24.6665L24.6663 15.3332Z" stroke="#6EC9BF" stroke-width="1.5" stroke-linecap="round" stroke-linejoin="round"/>
<path d="M7.13291 8.17971C6.74791 6.97804 7.20291 5.49638 8.45124 5.08804C9.11624 4.87804 9.93291 5.05304 10.3879 5.69471C10.8196 5.02971 11.6712 4.87804 12.3246 5.08804C13.5846 5.49638 14.0279 6.97804 13.6546 8.17971C13.0596 10.0814 10.9712 11.073 10.3879 11.073C9.81624 11.0614 7.75124 10.093 7.13291 8.17971Z" stroke="#6EC9BF" stroke-width="1.5" stroke-linecap="round" stroke-linejoin="round"/>
</svg>
