<svg width="25" height="25" viewBox="0 0 25 25" fill="none" xmlns="http://www.w3.org/2000/svg">
<path d="M10.3284 2.17233L2.53219 8.41608C1.65469 9.11358 1.09219 10.5873 1.28344 11.6898L2.77969 20.6448C3.04969 22.2423 4.57969 23.5361 6.19969 23.5361H18.7997C20.4084 23.5361 21.9497 22.2311 22.2197 20.6448L23.7159 11.6898C23.8959 10.5873 23.3334 9.11358 22.4672 8.41608L14.6709 2.18358C13.4672 1.21608 11.5209 1.21608 10.3284 2.17233Z" stroke="#150D28" stroke-width="1.6875" stroke-linecap="round" stroke-linejoin="round"/>
<path d="M9 18C9 16.8954 9.89543 16 11 16H14C15.1046 16 16 16.8954 16 18V23H9V18Z" fill="#150D28"/>
</svg>
