<svg width="22" height="25" viewBox="0 0 22 25" fill="none" xmlns="http://www.w3.org/2000/svg">
<path d="M0 25C0 18.9721 4.92175 14.0924 11 14.0924C17.0782 14.0924 22 18.9721 22 25H0ZM17.2701 6.18444C17.27 7.82448 16.6129 9.39731 15.4433 10.5569C14.8642 11.1311 14.1767 11.5866 13.4201 11.8973C12.6635 12.208 11.8526 12.3679 11.0336 12.3679C9.37972 12.3678 7.79357 11.7162 6.62413 10.5565C5.45469 9.39672 4.79775 7.82381 4.79784 6.18378C4.79784 4.54374 5.45486 2.97087 6.62436 1.81119C7.79387 0.651503 9.38005 0 11.034 0C12.6879 0 14.2741 0.651503 15.4436 1.81119C16.6131 2.97087 17.2701 4.5444 17.2701 6.18444Z" fill="white"/>
</svg>
