<svg width="31" height="31" viewBox="0 0 31 31" fill="none" xmlns="http://www.w3.org/2000/svg">
<path d="M3.75391 12.3213H3.92041L4.13232 12.3667L4.34424 12.4727L4.52588 12.6392L4.63184 12.7754L4.70752 12.9419L4.75293 13.1387V13.3203L4.70752 13.5322L4.58643 13.7744L4.4502 13.9258L4.25342 14.062L3.96582 14.2437L3.73877 14.395L3.45117 14.6069L3.23926 14.7734L3.08789 14.9097H3.05762V14.9399L2.93652 15.0459L2.63379 15.3486L2.49756 15.5151L2.34619 15.7119L2.17969 15.9692L2.05859 16.2114L1.96777 16.4233L1.87695 16.7412L1.84668 16.9531V17.3467L1.89209 17.6191L1.98291 17.9219L2.08887 18.1641L2.2251 18.4062L2.3916 18.6484L2.52783 18.8149L2.70947 19.0269L3.01221 19.3296L3.1333 19.4355L3.39062 19.6475L3.67822 19.8594L3.99609 20.0713L4.31396 20.2681L4.55615 20.4043L4.91943 20.6011L5.25244 20.7676L5.79736 21.0098L6.31201 21.2217L6.81152 21.4033L7.4624 21.6152L8.24951 21.8423L9.05176 22.0391L9.62695 22.1602L10.2476 22.2812L10.9893 22.4023L11.6855 22.4932L12.2002 22.5537L12.2305 22.5688L12.1548 22.478L11.519 21.8423L11.4131 21.6909L11.3223 21.479L11.292 21.3125V21.1611L11.3374 20.9492L11.4585 20.707L11.625 20.5254L11.7764 20.4194L11.9731 20.3438L12.0337 20.3286H12.3818L12.5786 20.3892L12.7603 20.4951L12.9419 20.6616L15.3184 23.0381L15.4546 23.2349L15.5303 23.4316L15.5605 23.6738L15.5303 23.8857L15.4546 24.0674L15.3638 24.2188L15.1973 24.4004L12.8359 26.7617L12.6846 26.8677L12.5181 26.9434L12.3516 26.9888H12.064L11.8521 26.9282L11.6704 26.8223L11.5039 26.6709L11.3677 26.4438L11.3071 26.2471L11.292 26.1411V26.02L11.3374 25.793L11.4585 25.5508L11.625 25.3691L12.1699 24.8242L12.2456 24.7334L12.3062 24.6729H12.3364L12.3667 24.6123L12.4121 24.5972V24.5669L12.5029 24.4912L12.5181 24.4458L12.1548 24.4155L11.2617 24.3096L10.5352 24.2036L9.73291 24.0674L9.05176 23.9312L8.38574 23.7798L7.78027 23.6284L7.14453 23.4468L6.5542 23.2651L5.90332 23.0381L5.28271 22.7959L4.75293 22.5688L4.20801 22.3115L3.82959 22.1147L3.48145 21.918L3.22412 21.7666L2.89111 21.5547L2.58838 21.3428L2.42188 21.2217L2.14941 21.0098L1.72559 20.6465L1.30176 20.2227L1.16553 20.0562L1.0293 19.9048L0.847656 19.6626L0.666016 19.3901L0.514648 19.1328L0.393555 18.9058L0.227051 18.5122L0.105957 18.1187L0.0151367 17.6797L0 17.6343V16.6504L0.0756836 16.3174L0.166504 15.9692L0.257324 15.6968L0.393555 15.394L0.514648 15.1519L0.635742 14.9399L0.756836 14.7583L0.908203 14.5464L1.05957 14.3496L1.1958 14.1982L1.27148 14.0923H1.30176L1.33203 14.0317L1.75586 13.6079L1.92236 13.4717L2.07373 13.3354L2.46729 13.0327L2.77002 12.8208L3.07275 12.624L3.36035 12.4424L3.52686 12.3667L3.63281 12.3364L3.75391 12.3213Z" fill="#6EC9BF"/>
<path d="M27.6245 12.6997H27.8818L28.1089 12.7603L28.2905 12.8662L28.563 13.063L28.7598 13.2144L28.9111 13.3354L29.1079 13.502L29.3047 13.6836L29.3652 13.729V13.7593L29.4258 13.7896L29.5469 13.9106L29.6528 14.0317L29.7588 14.1377L29.895 14.3042L30.0464 14.4858L30.2432 14.7583L30.3643 14.9551L30.4854 15.167L30.6367 15.4546L30.7578 15.7573L30.8486 16.0298L30.9395 16.3779L30.9849 16.5596H31V17.7251L30.9697 17.7402L30.894 18.1035L30.7881 18.4668L30.667 18.7695L30.561 18.9966L30.4854 19.1479L30.3037 19.4507L30.1372 19.6929L30.001 19.8745L29.8647 20.041L29.6982 20.2227L29.5923 20.3438L29.2896 20.6465L29.1685 20.7524L29.0171 20.8887L28.8203 21.04L28.6689 21.1611L28.3965 21.3579L27.8516 21.7212L27.5186 21.918L27.1401 22.1299L26.6406 22.3872L26.02 22.6748L25.46 22.9019L24.8545 23.1289L24.2188 23.3408L23.6133 23.5225L22.8716 23.7192L22.2964 23.8555L21.5698 24.0068L20.8281 24.1431L19.7231 24.3096L19.6172 24.3247H19.4053L19.2085 24.2793L19.0269 24.1885L18.8906 24.0825L18.7544 23.9312L18.6333 23.689L18.5879 23.4771V23.356L18.6333 23.1289L18.6938 22.9927L18.7998 22.8262L18.8604 22.7505L19.042 22.6143L19.2085 22.5386L19.481 22.478L20.2983 22.3569L20.9189 22.251L21.6001 22.1147L22.2056 21.9785L23.0078 21.7666L23.7192 21.5547L24.3398 21.3428L24.8242 21.1611L25.3994 20.9189L25.8232 20.7222L26.3379 20.4648L26.686 20.2681L27.0039 20.0713L27.3369 19.8442L27.5791 19.6626L27.791 19.4961L27.9727 19.3296L28.0938 19.2236L28.3359 18.9814L28.4419 18.8604L28.6084 18.6484L28.79 18.376L28.9263 18.1338L29.0474 17.8311L29.123 17.5435L29.1533 17.3315V16.9834L29.1079 16.6958L29.0474 16.4688L28.9414 16.1963L28.7598 15.8633L28.6387 15.6816L28.4722 15.4697L28.3208 15.3032L28.2148 15.1821L28.0332 15.0005L27.8667 14.8643L27.6548 14.6826L27.3672 14.4707L27.1855 14.3345L27.0947 14.2588L26.9585 14.0771L26.8677 13.8804L26.8374 13.7593V13.4717L26.8979 13.2598L26.9888 13.0933L27.125 12.9419L27.231 12.8511L27.4731 12.73L27.6245 12.6997Z" fill="#6EC9BF"/>
<path d="M15.2275 9.44531H15.8936L16.272 9.49072L16.6504 9.58154L16.938 9.6875L17.1802 9.80859L17.3618 9.91455L17.5737 10.0811L17.71 10.2021V10.2324H17.7402L17.8765 10.3989L18.043 10.6411L18.1641 10.8984L18.2549 11.2012L18.2852 11.3677L18.3003 11.625L18.2852 11.8369L18.2246 12.0186L18.1338 12.1548L18.0127 12.2456L17.8462 12.3062L17.71 12.3364L17.5737 12.3516H17.2861L16.9985 12.3062L16.8169 12.2305L16.6807 12.1396L16.5747 12.0034L16.5142 11.8369L16.4839 11.5645L16.4233 11.3979L16.2871 11.2466L16.1357 11.1558L15.9087 11.0801L15.5908 11.0347L15.2881 11.0498L15.0762 11.0952L14.8945 11.1709L14.7432 11.292L14.6523 11.3979L14.5312 11.6401L14.4707 11.8823L14.4556 12.1396V13.1538L14.6523 12.9873L14.8945 12.8511L15.0913 12.7754L15.3638 12.7148L15.6514 12.6846H16.0752L16.3931 12.7148L16.6655 12.7603L16.9683 12.8511L17.2407 12.9722L17.4829 13.1235L17.6494 13.2749L17.7251 13.3506L17.8613 13.502L17.9824 13.6836L18.1035 13.9409L18.1943 14.2134L18.27 14.5918L18.3003 15.0156V15.2881L18.27 15.7422L18.2095 16.0752L18.1338 16.3477L18.0278 16.605L17.8765 16.8774L17.7402 17.0591L17.604 17.2104L17.498 17.3164L17.271 17.4829L17.0288 17.6191L16.7866 17.7251L16.499 17.8159L16.1357 17.8916L15.6816 17.937H15.2427L14.7734 17.8916L14.4253 17.8159L14.1074 17.71L13.7593 17.5435L13.502 17.3618L13.3203 17.1953L13.1538 17.0137L13.0024 16.7866L12.8662 16.5293L12.7603 16.2417L12.6846 15.9238L12.6392 15.5908L12.624 15.3335V12.0488L12.6543 11.6704L12.7148 11.3223L12.8057 11.0195L12.9268 10.7471L13.0479 10.5352L13.1689 10.3687L13.3354 10.187L13.4414 10.0811L13.6685 9.91455L13.9258 9.76318L14.2134 9.64209L14.5918 9.53613L15.0459 9.46045L15.2275 9.44531ZM15.2427 14.0923L15.0308 14.1377L14.8794 14.1982L14.6978 14.3345L14.5767 14.501L14.501 14.6826L14.4556 14.8643L14.4404 15.0308V15.4395L14.4707 15.7119L14.5464 15.9541L14.6372 16.1206L14.7432 16.2417L14.9551 16.3779L15.1367 16.4385L15.3486 16.4688H15.606L15.8481 16.4233L16.0298 16.3477L16.1812 16.2417L16.2871 16.1357L16.4082 15.8936L16.4688 15.6362V14.9399L16.4082 14.6675L16.2871 14.4253L16.1509 14.2739L15.939 14.1528L15.7725 14.1074L15.6665 14.0923H15.2427Z" fill="#6EC9BF"/>
<path d="M22.1602 9.44531H22.8262L23.2197 9.49072L23.6133 9.58154L23.9463 9.70264L24.2642 9.86914L24.5063 10.0508L24.7031 10.2324L24.8848 10.4595L25.0361 10.7168L25.1421 10.959L25.2178 11.186L25.2783 11.4434L25.3237 11.8066L25.3389 12.064V15.3335L25.3086 15.7422L25.248 16.0752L25.1724 16.3477L25.0361 16.6655L24.9302 16.8472L24.7788 17.0591L24.5972 17.2559L24.4155 17.4072L24.2036 17.5435L23.9614 17.6646L23.7344 17.7554L23.4014 17.8462L23.0532 17.9067L22.7202 17.937H22.2812L21.812 17.8916L21.4487 17.8159L21.1763 17.7251L20.8735 17.5889L20.6162 17.4224L20.4497 17.2861L20.2378 17.0742L20.0864 16.8623L19.9653 16.6504L19.8442 16.3779L19.7686 16.1206L19.708 15.8179L19.6777 15.5303L19.6626 15.0913V12.1851L19.6777 11.8066L19.7383 11.3979L19.814 11.0952L19.9351 10.7925L20.041 10.5806L20.1772 10.3838L20.3438 10.187L20.5254 10.0205L20.7676 9.854L20.9795 9.73291L21.3276 9.59668L21.6152 9.521L21.9937 9.46045L22.1602 9.44531ZM22.4326 11.0195L22.1904 11.0498L22.0391 11.0952L21.8726 11.186L21.7212 11.3223L21.6304 11.4585L21.5547 11.625L21.4941 11.8823L21.479 12.064V15.2881L21.5093 15.5908L21.585 15.833L21.6606 15.9844L21.8271 16.166L22.0088 16.272L22.2056 16.3325L22.2964 16.3477H22.7051L22.9473 16.2871L23.144 16.1812L23.2803 16.0601L23.3862 15.9087L23.4771 15.6816L23.5225 15.3789V12.0186L23.4922 11.7764L23.4165 11.5342L23.2954 11.3374L23.1743 11.2163L23.0229 11.1255L22.8716 11.0649L22.7202 11.0347L22.4326 11.0195Z" fill="#6EC9BF"/>
<path d="M8.12842 9.44531H8.82471L9.21826 9.49072L9.56641 9.56641L9.83887 9.65723L10.1265 9.79346L10.3081 9.91455L10.52 10.0962L10.6411 10.2324L10.7773 10.4443L10.8833 10.6562L10.9741 10.959L11.0195 11.2617V11.8066L10.9741 12.1245L10.8984 12.4424L10.7925 12.7148L10.6562 12.9722L10.4746 13.1992L10.3081 13.3354L10.187 13.396L10.1719 13.4263L10.2627 13.4565L10.4746 13.5625L10.6562 13.6836L10.8682 13.8652L11.0498 14.0923L11.1709 14.3193L11.2617 14.5918L11.3071 14.8491L11.3223 15.2275L11.3071 15.6514L11.2466 16.0449L11.1558 16.3628L11.0347 16.6504L10.8984 16.8774L10.7622 17.0591L10.7017 17.1348H10.6714L10.6411 17.1953L10.52 17.3013L10.3384 17.4375L10.0811 17.5889L9.76318 17.7251L9.3999 17.8311L8.97607 17.9067L8.62793 17.937H8.2041L7.84082 17.9067L7.49268 17.8462L7.1748 17.7554L6.85693 17.6191L6.61475 17.4829L6.43311 17.3467L6.28174 17.2104L6.20605 17.1348L6.06982 16.9834L5.91846 16.7563L5.79736 16.5142L5.72168 16.3022L5.66113 16.0449L5.646 15.9541V15.606L5.69141 15.4243L5.76709 15.2881L5.87305 15.1973L6.00928 15.1367L6.2666 15.0913H6.73584L6.99316 15.1216L7.20508 15.1973L7.32617 15.2881L7.40186 15.4243L7.43213 15.5303L7.4624 15.8481L7.52295 16.0146L7.65918 16.166L7.84082 16.2568L8.06787 16.3174L8.18896 16.3325H8.71875L8.9458 16.2871L9.09717 16.2266L9.26367 16.1206L9.35449 15.9995L9.43018 15.833L9.47559 15.606L9.49072 15.394V15.0762L9.46045 14.8037L9.3999 14.6221L9.29395 14.4556L9.17285 14.3647L9.02148 14.2891L8.85498 14.2437L8.52197 14.2134L8.24951 14.1831L8.12842 14.1226L8.0376 14.0469L7.94678 13.8955L7.88623 13.6987L7.87109 13.5928V13.4263L7.9165 13.1841L7.97705 13.0479L8.06787 12.9268L8.14355 12.8662L8.23438 12.8208L8.46143 12.7905L8.68848 12.7754L8.93066 12.6997L9.05176 12.6089H9.08203L9.21826 12.3364L9.26367 12.1396L9.27881 11.9883V11.7158L9.24854 11.5039L9.17285 11.3223L9.1123 11.2314L8.99121 11.1255L8.79443 11.0498L8.61279 11.0195H8.23438L8.02246 11.0498L7.85596 11.1104L7.73486 11.2012L7.64404 11.3828L7.62891 11.4585L7.59863 11.7764L7.52295 11.958L7.40186 12.0942L7.22021 12.1851L7.0083 12.2305L6.8418 12.2456H6.56934L6.28174 12.2153L6.08496 12.1548L5.979 12.0942L5.88818 11.9731L5.84277 11.8672L5.8125 11.6704V11.3979L5.85791 11.0952L5.93359 10.8379L6.00928 10.6562L6.14551 10.4292L6.25146 10.293L6.41797 10.1113L6.56934 9.9751L6.79639 9.82373L7.02344 9.70264L7.2959 9.59668L7.5835 9.521L7.96191 9.46045L8.12842 9.44531Z" fill="#6EC9BF"/>
<path d="M27.3823 3.98096H27.6396L27.9575 4.01123L28.3359 4.10205L28.6387 4.22314L28.9263 4.37451L29.1836 4.55615L29.3955 4.73779L29.5469 4.88916L29.7134 5.10107L29.8647 5.32812L30.0161 5.61572L30.1221 5.90332L30.1826 6.13037L30.228 6.40283L30.2432 6.56934V6.88721L30.1978 7.25049L30.1069 7.5835L29.9858 7.88623L29.8496 8.14355L29.668 8.40088L29.4712 8.62793L29.335 8.76416L29.0776 8.96094L28.8052 9.12744L28.5176 9.26367L28.2451 9.35449L27.8667 9.43018L27.7305 9.44531H27.2612L26.9434 9.3999L26.5801 9.29395L26.3076 9.17285L26.0806 9.05176L25.8384 8.88525L25.687 8.74902L25.5659 8.64307L25.3994 8.46143L25.2178 8.21924L25.0361 7.90137L24.915 7.59863L24.8545 7.40186L24.7788 7.0083L24.7637 6.66016L24.7939 6.34229L24.8394 6.1001L24.9453 5.75195L25.0664 5.47949L25.2026 5.2373L25.3843 4.99512L25.4902 4.87402L25.5811 4.76807L25.7021 4.66211L25.8687 4.52588L26.0654 4.38965L26.3076 4.25342L26.5952 4.13232L26.9131 4.0415L27.1855 3.99609L27.3823 3.98096ZM27.3521 5.82764L27.1553 5.88818L26.9888 5.979L26.8071 6.14551L26.7012 6.31201L26.6255 6.52393L26.6104 6.62988V6.82666L26.6558 7.02344L26.7466 7.20508L26.8677 7.35645L27.019 7.47754L27.1704 7.55322L27.3823 7.61377H27.6245L27.8516 7.55322L28.0181 7.4624L28.1543 7.35645L28.2905 7.1748L28.3813 6.96289L28.4116 6.7207L28.3813 6.49365L28.3057 6.29688L28.1997 6.13037L28.0938 6.02441L27.9272 5.91846L27.7305 5.84277L27.6548 5.82764H27.3521Z" fill="#6EC9BF"/>
</svg>
