<svg width="25" height="25" viewBox="0 0 25 25" fill="none" xmlns="http://www.w3.org/2000/svg">
<path d="M23.75 12.5C23.75 18.71 18.71 23.75 12.5 23.75C6.29 23.75 1.25 18.71 1.25 12.5C1.25 6.29 6.29 1.25 12.5 1.25" stroke="#8E70D6" stroke-width="1.2" stroke-linecap="round" stroke-linejoin="round"/>
<path d="M7.9998 22.625H9.1248C6.93105 16.055 6.93105 8.945 9.1248 2.375H7.9998" stroke="#8E70D6" stroke-width="1.2" stroke-linecap="round" stroke-linejoin="round"/>
<path d="M15.875 22.625C16.9663 19.34 17.5175 15.92 17.5175 12.5" stroke="#8E70D6" stroke-width="1.2" stroke-linecap="round" stroke-linejoin="round"/>
<path d="M2.375 8V9.125C5.66 8.03375 9.08 7.48248 12.5 7.48248" stroke="#8E70D6" stroke-width="1.2" stroke-linecap="round" stroke-linejoin="round"/>
<path d="M2.375 15.8752C8.945 18.0689 16.055 18.0689 22.625 15.8752" stroke="#8E70D6" stroke-width="1.2" stroke-linecap="round" stroke-linejoin="round"/>
<path d="M20.5616 2.20118L18.9548 3.92919C18.9548 3.92919 17.4273 3.24465 16.0874 2.80495C14.7475 2.36525 14.8016 3.34149 15.3109 3.80463C15.8202 4.26777 17.3212 5.52152 17.3212 5.52152L16.0895 7.03429C14.6534 7.09301 14.509 7.72316 14.6163 8.03089L17.2165 10.6179C17.9879 10.0141 18.1268 9.12182 18.0998 8.75118L19.1442 7.69847L21.2351 9.82238C22.0497 9.99949 22.1459 9.50107 22.0922 9.22972L20.9118 6.07962L23.0006 3.97419C23.2788 3.12955 22.8658 2.35596 22.6246 2.07475C21.6598 1.70177 20.8473 2.00363 20.5616 2.20118Z" stroke="#8E70D6" stroke-width="1.11375" stroke-linejoin="round"/>
</svg>
