<svg width="33" height="33" viewBox="0 0 33 33" fill="none" xmlns="http://www.w3.org/2000/svg">
<path d="M10.758 11.4774C4.8246 11.4774 0 16.302 0 22.242C0 28.1754 4.8246 33 10.758 33C16.6914 33 21.516 28.1754 21.516 22.242C21.5226 16.302 16.6914 11.4774 10.758 11.4774ZM10.758 31.5678C5.6166 31.5678 1.4322 27.3834 1.4322 22.242C1.4322 17.1006 5.6166 12.9162 10.758 12.9162C15.8994 12.9162 20.0838 17.094 20.0838 22.242C20.0838 27.3834 15.906 31.5678 10.758 31.5678Z" fill="white"/>
<path d="M11.4773 21.6612V18.7374C12.2693 18.9288 12.8633 19.4238 12.9161 20.0112C12.9491 20.4072 13.3187 20.6976 13.6883 20.6646C14.0843 20.6316 14.3747 20.2818 14.3417 19.8858C14.2295 18.5592 13.0415 17.5164 11.4773 17.2722V16.5C11.4773 16.104 11.1539 15.7806 10.7579 15.7806C10.3619 15.7806 10.0385 16.104 10.0385 16.5V17.2722C8.40175 17.5362 7.16755 18.6978 7.16755 20.0838C7.16755 21.4302 8.09815 22.341 10.0385 22.8162V25.74C9.24655 25.5486 8.65255 25.0536 8.59975 24.4662C8.56675 24.0702 8.18395 23.7732 7.82755 23.8128C7.43155 23.8458 7.14115 24.1956 7.17415 24.585C7.28635 25.9116 8.47435 26.9544 10.0385 27.1986V27.9708C10.0385 28.3668 10.3619 28.6902 10.7579 28.6902C11.1539 28.6902 11.4773 28.3668 11.4773 27.9708V27.1986C13.1141 26.9346 14.3483 25.773 14.3483 24.387C14.3483 23.0472 13.4177 22.1364 11.4773 21.6612ZM8.60634 20.0838C8.60634 19.4766 9.21355 18.942 10.0385 18.7374V21.3444C9.06835 21.0672 8.60634 20.6646 8.60634 20.0838ZM11.4773 25.74V23.133C12.4541 23.4102 12.9095 23.8128 12.9095 24.3936C12.9161 25.0008 12.3023 25.5354 11.4773 25.74Z" fill="white"/>
<path d="M22.2421 0C16.3087 0 11.4841 4.8246 11.4841 10.758C11.4841 11.154 11.8075 11.4774 12.2035 11.4774C12.5995 11.4774 12.9229 11.154 12.9229 10.758C12.9163 5.6166 17.0941 1.4322 22.2421 1.4322C27.3901 1.4322 31.5679 5.6166 31.5679 10.758C31.5679 15.8994 27.3835 20.0838 22.2421 20.0838C21.8461 20.0838 21.5227 20.4072 21.5227 20.8032C21.5227 21.1992 21.8461 21.5226 22.2421 21.5226C28.1755 21.5226 33.0001 16.698 33.0001 10.7646C33.0001 4.8312 28.1755 0 22.2421 0Z" fill="white"/>
<path d="M22.2421 4.30322C21.8461 4.30322 21.5227 4.62662 21.5227 5.02262V5.79482C19.8859 6.05882 18.6517 7.22042 18.6517 8.60642C18.6517 9.95282 19.5823 10.8636 21.5227 11.3388V14.2626C20.7307 14.0712 20.1367 13.5762 20.0839 12.9888C20.0509 12.5928 19.6681 12.2958 19.3117 12.3354C18.9157 12.3684 18.6253 12.7182 18.6583 13.1076C18.7705 14.4342 19.9585 15.477 21.5227 15.7212V16.5C21.5227 16.896 21.8461 17.2194 22.2421 17.2194C22.6381 17.2194 22.9615 16.896 22.9615 16.5V15.7278C24.5983 15.4638 25.8325 14.3022 25.8325 12.9162C25.8325 11.5698 24.9019 10.659 22.9615 10.1838V7.26002C23.7535 7.45142 24.3475 7.94642 24.4003 8.53382C24.4333 8.92982 24.8029 9.22682 25.1725 9.18722C25.5685 9.15422 25.8589 8.80442 25.8259 8.40842C25.7137 7.08182 24.5257 6.03902 22.9615 5.79482V5.02262C22.9549 4.62662 22.6381 4.30322 22.2421 4.30322ZM20.0839 8.60642C20.0839 7.99922 20.6911 7.46462 21.5161 7.26002V9.86702C20.5459 9.58982 20.0839 9.18062 20.0839 8.60642ZM24.3937 12.9162C24.3937 13.5234 23.7865 14.058 22.9615 14.2626V11.6556C23.9317 11.9328 24.3937 12.3354 24.3937 12.9162Z" fill="white"/>
</svg>
