<svg width="388" height="406" viewBox="0 0 388 406" fill="none" xmlns="http://www.w3.org/2000/svg">
<path d="M0 96C0 42.9807 42.9807 0 96 0H292C345.019 0 388 42.9807 388 96V310C388 363.019 345.019 406 292 406H96C42.9807 406 0 363.019 0 310V96Z" fill="#B0F9F2"/>
<path d="M320.289 248.519C316.563 248.039 313.319 247.182 310.557 245.948C307.795 244.713 305.547 243.033 303.813 240.908C302.014 238.85 300.665 236.313 299.766 233.296C298.931 230.279 298.513 226.782 298.513 222.804V202.85C298.513 201.341 298.77 199.935 299.284 198.633C299.862 197.261 300.665 196.027 301.693 194.93C302.785 193.764 303.941 192.907 305.161 192.358C306.446 191.81 307.827 191.535 309.305 191.535C310.782 191.535 312.131 191.81 313.351 192.358C314.636 192.907 315.792 193.764 316.82 194.93C317.912 196.027 318.715 197.295 319.229 198.735C319.743 200.107 320 201.581 320 203.158V222.599C320 223.147 320.032 223.662 320.096 224.142C320.16 224.553 320.225 224.93 320.289 225.273C320.417 225.547 320.546 225.856 320.674 226.199C320.803 226.473 320.995 226.747 321.252 227.022C321.445 227.296 321.638 227.536 321.83 227.742C322.023 227.947 322.248 228.119 322.505 228.256C322.762 228.393 323.019 228.53 323.276 228.667C323.597 228.736 323.918 228.804 324.239 228.873C324.239 228.873 324.271 228.873 324.336 228.873C324.336 228.942 324.336 228.976 324.336 228.976C324.4 228.976 324.432 228.976 324.432 228.976C324.496 228.976 324.528 228.976 324.528 228.976C324.592 228.976 324.657 228.976 324.721 228.976C324.785 228.976 324.849 228.976 324.914 228.976C324.978 228.976 325.01 228.976 325.01 228.976C325.074 228.976 325.138 228.976 325.203 228.976C325.395 228.976 325.588 228.976 325.781 228.976C325.974 228.976 326.166 228.942 326.359 228.873C326.487 228.804 326.648 228.736 326.841 228.667C327.033 228.599 327.226 228.53 327.419 228.462C327.74 228.324 328.029 228.119 328.286 227.844C328.607 227.57 328.896 227.296 329.153 227.022C329.41 226.747 329.603 226.473 329.731 226.199C329.924 225.856 330.052 225.547 330.117 225.273C330.245 224.93 330.309 224.553 330.309 224.142C330.374 223.662 330.406 223.182 330.406 222.702V203.055C330.406 201.547 330.663 200.107 331.177 198.735C331.755 197.295 332.558 196.027 333.585 194.93C334.677 193.764 335.834 192.907 337.054 192.358C338.339 191.81 339.72 191.535 341.197 191.535C342.675 191.535 344.056 191.81 345.34 192.358C346.625 192.907 347.781 193.764 348.809 194.93C349.901 196.027 350.704 197.261 351.218 198.633C351.732 199.935 351.989 201.375 351.989 202.953V222.702C351.989 226.747 351.539 230.279 350.64 233.296C349.74 236.313 348.424 238.85 346.689 240.908C344.891 243.033 342.61 244.713 339.848 245.948C337.15 247.182 333.939 248.005 330.213 248.416C330.149 248.416 330.052 248.416 329.924 248.416C329.795 248.416 329.699 248.451 329.635 248.519C329.506 248.519 329.378 248.519 329.249 248.519C329.185 248.519 329.089 248.519 328.96 248.519C328.896 248.519 328.8 248.519 328.671 248.519C328.543 248.519 328.447 248.553 328.382 248.622C328.254 248.622 328.125 248.622 327.997 248.622C327.933 248.622 327.836 248.622 327.708 248.622C327.579 248.622 327.451 248.622 327.322 248.622C327.194 248.622 327.098 248.656 327.033 248.725C326.905 248.725 326.776 248.725 326.648 248.725C326.584 248.725 326.487 248.725 326.359 248.725C326.166 248.725 325.974 248.725 325.781 248.725C325.588 248.725 325.395 248.725 325.203 248.725C325.01 248.725 324.785 248.725 324.528 248.725C324.336 248.725 324.143 248.725 323.95 248.725C323.693 248.656 323.468 248.622 323.276 248.622C323.083 248.622 322.89 248.622 322.698 248.622C322.505 248.622 322.312 248.622 322.119 248.622C321.927 248.622 321.734 248.588 321.541 248.519C321.284 248.519 321.06 248.485 320.867 248.416C320.674 248.416 320.481 248.416 320.289 248.416V248.519Z" fill="#382469"/>
<path d="M264.525 248.601C260.478 248.532 256.752 247.812 253.348 246.441C250.008 245.07 246.989 243.012 244.291 240.269C241.529 237.458 239.441 234.406 238.028 231.115C236.679 227.755 236.004 224.086 236.004 220.109C235.94 216.132 236.582 212.463 237.931 209.103C239.28 205.675 241.336 202.52 244.098 199.64C246.796 196.76 249.847 194.6 253.251 193.16C256.656 191.72 260.414 191 264.525 191C266.387 191 268.186 191.171 269.92 191.514C271.655 191.789 273.325 192.234 274.931 192.851C276.601 193.469 278.142 194.257 279.556 195.217C281.033 196.109 282.414 197.137 283.699 198.303C285.176 199.674 286.493 201.149 287.649 202.726C288.805 204.303 289.769 205.983 290.54 207.766C291.31 209.549 291.889 211.366 292.274 213.218C292.724 215.069 292.981 216.92 293.045 218.772C293.045 218.84 293.045 218.909 293.045 218.978C293.045 219.046 293.045 219.115 293.045 219.183C293.045 219.183 293.045 219.218 293.045 219.286C293.045 219.355 293.045 219.423 293.045 219.492C293.045 219.56 293.045 219.629 293.045 219.698C293.045 219.698 293.045 219.732 293.045 219.8C293.045 222.269 292.724 224.669 292.081 227.001C291.503 229.332 290.636 231.629 289.48 233.892C288.324 236.155 286.878 238.178 285.144 239.961C283.41 241.744 281.418 243.321 279.17 244.692C278.142 245.378 277.05 245.961 275.894 246.441C274.738 246.921 273.517 247.264 272.233 247.47C271.012 247.812 269.76 248.052 268.475 248.19C267.19 248.395 265.874 248.498 264.525 248.498V248.601ZM257.009 219.903C256.945 221.412 257.105 222.749 257.491 223.915C257.876 225.081 258.454 226.109 259.225 227.001C259.996 227.892 260.799 228.544 261.634 228.955C262.533 229.366 263.497 229.572 264.525 229.572C264.589 229.572 264.653 229.572 264.717 229.572C264.782 229.572 264.846 229.572 264.91 229.572C264.91 229.572 264.942 229.572 265.006 229.572C265.071 229.572 265.135 229.572 265.199 229.572C265.328 229.572 265.456 229.572 265.584 229.572C265.713 229.504 265.841 229.435 265.97 229.366C266.805 229.229 267.544 228.989 268.186 228.646C268.893 228.235 269.471 227.721 269.92 227.103C270.434 226.486 270.852 225.766 271.173 224.943C271.494 224.121 271.719 223.161 271.847 222.063C271.847 221.995 271.847 221.926 271.847 221.858C271.847 221.789 271.879 221.686 271.944 221.549C271.944 221.481 271.944 221.412 271.944 221.343C271.944 221.206 271.944 221.103 271.944 221.035C271.944 220.898 271.944 220.795 271.944 220.726C271.944 220.658 271.976 220.555 272.04 220.418C272.04 220.349 272.04 220.281 272.04 220.212C272.04 220.075 272.04 219.972 272.04 219.903C272.04 219.423 272.008 218.978 271.944 218.566C271.879 218.086 271.783 217.64 271.655 217.229C271.59 216.818 271.462 216.406 271.269 215.995C271.141 215.583 270.98 215.206 270.787 214.863C270.402 214.178 269.952 213.595 269.439 213.115C268.989 212.566 268.507 212.155 267.993 211.88C267.479 211.538 266.933 211.297 266.355 211.16C265.777 210.955 265.167 210.852 264.525 210.852C263.882 210.852 263.24 210.955 262.598 211.16C262.019 211.297 261.473 211.538 260.96 211.88C260.446 212.155 259.964 212.566 259.514 213.115C259.065 213.595 258.647 214.178 258.262 214.863C258.069 215.206 257.876 215.583 257.684 215.995C257.555 216.406 257.427 216.818 257.298 217.229C257.234 217.64 257.17 218.086 257.105 218.566C257.041 218.978 257.009 219.458 257.009 220.006V219.903Z" fill="#382469"/>
<path d="M221.046 273C219.633 272.932 218.284 272.589 216.999 271.972C215.779 271.423 214.655 270.6 213.627 269.503C212.599 268.406 211.828 267.206 211.315 265.903C210.801 264.6 210.544 263.16 210.544 261.583V203.056C210.544 202.37 210.608 201.65 210.736 200.896C210.865 200.142 211.058 199.422 211.315 198.736C211.636 198.05 211.989 197.399 212.374 196.782C212.76 196.165 213.177 195.582 213.627 195.033C214.141 194.485 214.687 194.005 215.265 193.593C215.907 193.113 216.55 192.736 217.192 192.462C217.834 192.187 218.477 191.982 219.119 191.845C219.826 191.707 220.532 191.639 221.239 191.639C221.303 191.639 221.367 191.639 221.431 191.639C221.496 191.639 221.56 191.639 221.624 191.639C221.688 191.639 221.721 191.639 221.721 191.639C221.785 191.639 221.849 191.639 221.913 191.639C221.977 191.639 222.042 191.639 222.106 191.639C222.427 191.707 222.716 191.776 222.973 191.845C223.294 191.913 223.615 191.982 223.937 192.05C224.194 192.119 224.483 192.222 224.804 192.359C225.125 192.427 225.414 192.53 225.671 192.667C226.249 192.942 226.795 193.285 227.309 193.696C227.823 194.039 228.305 194.485 228.754 195.033C229.268 195.582 229.718 196.165 230.103 196.782C230.489 197.399 230.81 198.085 231.067 198.839C231.388 199.525 231.613 200.245 231.741 200.999C231.87 201.753 231.934 202.508 231.934 203.262V261.583C231.934 263.16 231.677 264.6 231.163 265.903C230.649 267.274 229.846 268.509 228.754 269.606C227.726 270.772 226.538 271.594 225.189 272.074C223.905 272.623 222.523 272.897 221.046 272.897V273Z" fill="#382469"/>
<path d="M168.559 191.639C168.752 191.707 168.945 191.742 169.137 191.742C169.33 191.673 169.555 191.605 169.812 191.536C170.005 191.536 170.197 191.536 170.39 191.536C170.583 191.467 170.775 191.433 170.968 191.433C171.354 191.365 171.739 191.33 172.124 191.33C172.51 191.262 172.895 191.227 173.281 191.227C174.501 191.227 175.657 191.33 176.749 191.536C177.841 191.742 178.901 192.05 179.929 192.462C180.957 192.873 181.888 193.387 182.723 194.005C183.622 194.622 184.457 195.307 185.228 196.062V196.267L194.093 191.227C194.221 191.227 194.317 191.227 194.382 191.227C194.51 191.159 194.607 191.09 194.671 191.022C194.799 190.953 194.928 190.919 195.056 190.919C195.185 190.85 195.313 190.816 195.442 190.816C195.506 190.816 195.57 190.816 195.634 190.816C195.699 190.816 195.763 190.782 195.827 190.713C195.827 190.713 195.859 190.713 195.923 190.713C195.988 190.713 196.052 190.713 196.116 190.713C196.18 190.713 196.245 190.713 196.309 190.713C196.373 190.713 196.437 190.679 196.501 190.61C196.501 190.61 196.534 190.61 196.598 190.61C196.662 190.61 196.726 190.61 196.791 190.61C197.112 190.61 197.433 190.679 197.754 190.816C198.139 190.885 198.493 190.987 198.814 191.125C199.135 191.262 199.456 191.433 199.777 191.639C200.099 191.845 200.388 192.085 200.645 192.359C201.287 193.045 201.833 193.799 202.283 194.622C202.796 195.376 203.214 196.199 203.535 197.09C203.856 197.982 204.113 198.908 204.306 199.868C204.499 200.759 204.595 201.685 204.595 202.645V237.102C204.595 238.885 204.338 240.463 203.824 241.834C203.375 243.205 202.668 244.405 201.704 245.434C200.741 246.531 199.681 247.32 198.525 247.8C197.433 248.28 196.245 248.52 194.96 248.52C194.896 248.52 194.831 248.52 194.767 248.52C194.703 248.52 194.639 248.52 194.574 248.52C194.574 248.52 194.542 248.52 194.478 248.52C194.414 248.451 194.35 248.417 194.285 248.417C194.221 248.417 194.157 248.417 194.093 248.417C194.093 248.417 194.061 248.417 193.996 248.417L185.228 243.171V243.685C184.522 244.508 183.719 245.228 182.819 245.845C181.984 246.463 181.085 246.977 180.122 247.388C179.158 247.663 178.098 247.903 176.942 248.108C175.786 248.383 174.565 248.52 173.281 248.52C172.831 248.52 172.381 248.486 171.932 248.417C171.546 248.417 171.129 248.383 170.679 248.314C170.422 248.314 170.165 248.28 169.908 248.211C169.716 248.211 169.523 248.177 169.33 248.108C169.073 248.108 168.816 248.074 168.559 248.006C168.367 248.006 168.142 247.971 167.885 247.903C166.408 247.697 164.93 247.286 163.453 246.668C162.04 246.051 160.658 245.228 159.31 244.2C157.961 243.171 156.676 242.005 155.455 240.703C154.299 239.4 153.207 237.925 152.18 236.28C151.537 235.114 150.927 233.948 150.349 232.782C149.835 231.548 149.417 230.279 149.096 228.977C148.711 227.605 148.422 226.234 148.229 224.862C148.101 223.491 148.036 222.085 148.036 220.645C148.036 220.576 148.036 220.508 148.036 220.439C148.036 220.371 148.036 220.302 148.036 220.234C148.036 220.234 148.036 220.199 148.036 220.131C148.036 220.062 148.036 219.994 148.036 219.925C148.036 219.788 148.036 219.651 148.036 219.514C148.036 219.376 148.036 219.239 148.036 219.102C148.165 215.605 148.743 212.348 149.771 209.331C150.863 206.313 152.404 203.536 154.396 200.999C156.387 198.462 158.539 196.439 160.851 194.93C163.228 193.353 165.797 192.29 168.559 191.742V191.639ZM169.33 220.439C169.33 221.125 169.362 221.742 169.427 222.291C169.491 222.839 169.619 223.354 169.812 223.834C169.94 224.314 170.133 224.794 170.39 225.274C170.647 225.754 170.936 226.199 171.257 226.611C171.578 227.091 171.932 227.502 172.317 227.845C172.767 228.188 173.216 228.462 173.666 228.668C174.18 228.942 174.662 229.148 175.111 229.285C175.625 229.354 176.107 229.388 176.557 229.388C176.621 229.388 176.685 229.388 176.749 229.388C176.814 229.388 176.878 229.388 176.942 229.388C177.006 229.388 177.07 229.388 177.135 229.388C177.649 229.319 178.162 229.182 178.676 228.977C179.254 228.771 179.8 228.497 180.314 228.154C180.828 227.811 181.278 227.399 181.663 226.919C182.113 226.439 182.498 225.857 182.819 225.171C182.948 224.965 183.044 224.759 183.109 224.554C183.237 224.279 183.333 224.005 183.398 223.731C183.526 223.525 183.59 223.285 183.59 223.011C183.655 222.737 183.719 222.462 183.783 222.188C183.783 222.119 183.783 222.051 183.783 221.982C183.783 221.914 183.815 221.811 183.879 221.674C183.879 221.605 183.879 221.536 183.879 221.468C183.879 221.399 183.879 221.331 183.879 221.262C183.879 221.194 183.879 221.125 183.879 221.056C183.879 220.988 183.911 220.885 183.976 220.748C183.976 220.679 183.976 220.611 183.976 220.542C183.976 220.474 183.976 220.405 183.976 220.336C183.976 220.268 183.976 220.234 183.976 220.234C183.976 220.165 183.976 220.096 183.976 220.028C183.976 219.959 183.976 219.925 183.976 219.925C183.976 219.856 183.976 219.788 183.976 219.719C183.911 219.651 183.879 219.616 183.879 219.616C183.879 219.548 183.879 219.479 183.879 219.411C183.879 219.342 183.879 219.308 183.879 219.308C183.879 219.239 183.879 219.171 183.879 219.102C183.751 218.211 183.558 217.422 183.301 216.736C183.044 215.982 182.723 215.296 182.338 214.679C181.952 214.131 181.503 213.651 180.989 213.239C180.539 212.759 180.025 212.382 179.447 212.108C179.319 212.039 179.19 212.005 179.062 212.005C178.933 211.936 178.805 211.868 178.676 211.799C178.548 211.799 178.419 211.799 178.291 211.799C178.227 211.731 178.13 211.662 178.002 211.593C177.938 211.593 177.873 211.593 177.809 211.593C177.745 211.593 177.681 211.559 177.616 211.491C177.552 211.491 177.488 211.491 177.424 211.491C177.36 211.491 177.295 211.491 177.231 211.491C177.167 211.491 177.103 211.491 177.038 211.491C176.974 211.491 176.91 211.456 176.846 211.388C176.781 211.388 176.717 211.388 176.653 211.388C176.589 211.388 176.524 211.388 176.46 211.388C175.625 211.456 174.822 211.662 174.051 212.005C173.345 212.348 172.67 212.828 172.028 213.445C171.386 214.062 170.84 214.816 170.39 215.708C170.005 216.531 169.716 217.525 169.523 218.691C169.523 218.759 169.523 218.828 169.523 218.896C169.459 218.965 169.427 219.034 169.427 219.102C169.427 219.102 169.427 219.136 169.427 219.205C169.427 219.274 169.427 219.342 169.427 219.411C169.427 219.479 169.427 219.548 169.427 219.616C169.427 219.685 169.427 219.754 169.427 219.822C169.362 219.891 169.33 219.959 169.33 220.028C169.33 220.028 169.33 220.062 169.33 220.131C169.33 220.199 169.33 220.268 169.33 220.336C169.33 220.405 169.33 220.474 169.33 220.542V220.439Z" fill="#382469"/>
<path d="M132.318 248.622C130.841 248.554 129.46 248.245 128.175 247.697C126.955 247.217 125.798 246.428 124.706 245.331C123.679 244.234 122.908 243.034 122.394 241.731C121.88 240.359 121.623 238.885 121.623 237.308V202.85C121.623 201.342 121.88 199.902 122.394 198.53C122.972 197.159 123.775 195.924 124.803 194.827C125.895 193.661 127.051 192.839 128.271 192.359C129.556 191.81 130.937 191.536 132.414 191.536C133.892 191.604 135.241 191.913 136.461 192.461C137.746 193.01 138.902 193.867 139.93 195.033C141.022 196.13 141.825 197.364 142.339 198.736C142.853 200.039 143.11 201.479 143.11 203.056V237.102C143.11 238.748 142.853 240.257 142.339 241.628C141.825 242.931 141.022 244.165 139.93 245.331C138.902 246.428 137.746 247.217 136.461 247.697C135.177 248.245 133.796 248.52 132.318 248.52V248.622Z" fill="#382469"/>
<path d="M44.7082 155.638C44.8688 155.638 44.9892 155.638 45.0695 155.638C45.2301 155.552 45.3505 155.466 45.4308 155.381C45.5914 155.381 45.7118 155.381 45.7921 155.381C45.9527 155.295 46.0732 155.209 46.1534 155.124C46.3943 154.952 46.6352 154.866 46.8761 154.866C47.1973 154.781 47.5184 154.695 47.8396 154.609C48.0002 154.609 48.1206 154.609 48.2009 154.609C48.3615 154.524 48.5221 154.481 48.6827 154.481C48.763 154.395 48.8834 154.352 49.044 154.352C49.2046 154.352 49.325 154.352 49.4053 154.352C49.5659 154.352 49.6864 154.352 49.7667 154.352C49.9272 154.352 50.0878 154.309 50.2484 154.224C50.3287 154.224 50.4491 154.224 50.6097 154.224C50.7703 154.224 50.8908 154.224 50.9711 154.224C52.336 154.224 53.6609 154.438 54.9456 154.866C56.2303 155.295 57.4748 155.938 58.6792 156.795C59.8836 157.652 60.8873 158.681 61.6902 159.881C62.5734 161.081 63.2961 162.409 63.8581 163.867L77.9496 205.396L92.1616 163.738C92.6433 162.367 93.2857 161.081 94.0886 159.881C94.9718 158.681 96.0157 157.652 97.2201 156.795C98.4244 155.938 99.669 155.295 100.954 154.866C102.238 154.438 103.603 154.224 105.049 154.224C105.29 154.224 105.53 154.224 105.771 154.224C106.012 154.224 106.293 154.266 106.614 154.352C106.855 154.352 107.096 154.395 107.337 154.481C107.578 154.481 107.819 154.524 108.06 154.609C108.541 154.695 109.023 154.866 109.505 155.124C110.067 155.295 110.629 155.509 111.191 155.766C112.476 156.452 113.6 157.266 114.563 158.209C115.527 159.152 116.37 160.224 117.093 161.424C117.735 162.538 118.217 163.738 118.538 165.024C118.939 166.309 119.14 167.595 119.14 168.881C119.14 169.395 119.1 169.909 119.02 170.424C119.02 170.852 118.98 171.281 118.899 171.71C118.819 172.138 118.699 172.61 118.538 173.124C118.377 173.552 118.217 173.981 118.056 174.41L91.0776 238.954C90.5155 240.411 89.9133 241.696 89.271 242.811C88.6287 243.839 87.9863 244.697 87.344 245.382C86.6213 246.154 85.8585 246.754 85.0556 247.182C84.2527 247.611 83.4096 247.954 82.5264 248.211C82.1249 248.382 81.6833 248.468 81.2015 248.468C80.8 248.554 80.3986 248.639 79.9971 248.725C79.5956 248.811 79.1942 248.854 78.7927 248.854C78.3912 248.939 77.9898 248.982 77.5883 248.982C76.143 248.982 74.8182 248.768 73.6138 248.339C72.4094 247.911 71.2451 247.354 70.121 246.668C69.0772 245.811 68.0735 244.739 67.11 243.454C66.2268 242.168 65.464 240.711 64.8217 239.082L37.8431 174.281C37.9234 174.195 37.9234 174.067 37.8431 173.895C37.7628 173.638 37.6825 173.381 37.6022 173.124C37.5219 172.867 37.4818 172.61 37.4818 172.352C37.4015 172.095 37.3212 171.838 37.2409 171.581C37.2409 171.495 37.2409 171.41 37.2409 171.324C37.2409 171.238 37.2007 171.11 37.1204 170.938C37.1204 170.852 37.1204 170.767 37.1204 170.681C37.1204 170.51 37.1204 170.381 37.1204 170.295C37.1204 170.124 37.1204 169.995 37.1204 169.91C37.1204 169.824 37.0803 169.695 37 169.524C37 169.438 37 169.352 37 169.267C37 169.095 37 168.967 37 168.881C37 167.509 37.2007 166.181 37.6022 164.895C37.9234 163.609 38.365 162.409 38.927 161.295C39.5694 160.095 40.3723 159.066 41.3358 158.209C42.2994 157.266 43.4235 156.452 44.7082 155.766V155.638Z" fill="#382469"/>
<path d="M218.598 156.799C221.782 156.799 224.405 154.205 223.948 151.054C222.57 141.558 217.802 132.676 210.291 125.828C201.28 117.615 189.06 113 176.317 113C163.575 113 151.354 117.615 142.344 125.828C134.832 132.676 130.065 141.558 128.687 151.054C128.229 154.205 130.853 156.799 134.036 156.799C137.22 156.799 139.747 154.195 140.346 151.069C141.631 144.367 145.148 138.136 150.496 133.26C157.344 127.017 166.633 123.51 176.317 123.51C186.002 123.51 195.29 127.017 202.138 133.26C207.486 138.136 211.004 144.367 212.289 151.069C212.888 154.195 215.414 156.799 218.598 156.799Z" fill="#382469"/>
<path fill-rule="evenodd" clip-rule="evenodd" d="M131.154 184.726C120.058 169.946 121.147 161.439 129.499 160.89C143.42 159.975 141.539 173.159 131.154 184.726ZM135.678 168.743C135.678 170.942 133.846 172.725 131.586 172.725C129.326 172.725 127.494 170.942 127.494 168.743C127.494 166.544 129.326 164.761 131.586 164.761C133.846 164.761 135.678 166.544 135.678 168.743Z" fill="#382469"/>
<path fill-rule="evenodd" clip-rule="evenodd" d="M220.492 184.836C209.396 170.055 210.485 161.549 218.837 161C232.758 160.084 230.877 173.269 220.492 184.836ZM225.018 168.853C225.018 171.052 223.186 172.835 220.926 172.835C218.666 172.835 216.834 171.052 216.834 168.853C216.834 166.654 218.666 164.872 220.926 164.872C223.186 164.872 225.018 166.654 225.018 168.853Z" fill="#382469"/>
</svg>
