<svg width="148" height="75" viewBox="0 0 148 75" fill="none" xmlns="http://www.w3.org/2000/svg">
<path d="M133.106 63.5247C131.355 63.2997 129.831 62.8979 128.533 62.3193C127.235 61.7407 126.179 60.9532 125.364 59.9567C124.519 58.9924 123.885 57.8031 123.463 56.3888C123.07 54.9745 122.874 53.3352 122.874 51.4709V42.1171C122.874 41.41 122.995 40.751 123.236 40.1403C123.508 39.4975 123.885 38.9189 124.368 38.4046C124.881 37.8581 125.424 37.4563 125.998 37.1992C126.602 36.942 127.25 36.8135 127.945 36.8135C128.639 36.8135 129.273 36.942 129.846 37.1992C130.45 37.4563 130.993 37.8581 131.476 38.4046C131.989 38.9189 132.366 39.5135 132.608 40.1885C132.849 40.8314 132.97 41.5225 132.97 42.2618V51.3744C132.97 51.6316 132.985 51.8727 133.015 52.0977C133.045 52.2905 133.075 52.4673 133.106 52.628C133.166 52.7566 133.226 52.9013 133.287 53.062C133.347 53.1905 133.438 53.3191 133.558 53.4477C133.649 53.5763 133.739 53.6888 133.83 53.7852C133.92 53.8816 134.026 53.962 134.147 54.0263C134.268 54.0906 134.388 54.1549 134.509 54.2191C134.66 54.2513 134.811 54.2834 134.962 54.3156C134.962 54.3156 134.977 54.3156 135.007 54.3156C135.007 54.3477 135.007 54.3638 135.007 54.3638C135.037 54.3638 135.052 54.3638 135.052 54.3638C135.082 54.3638 135.098 54.3638 135.098 54.3638C135.128 54.3638 135.158 54.3638 135.188 54.3638C135.218 54.3638 135.248 54.3638 135.279 54.3638C135.309 54.3638 135.324 54.3638 135.324 54.3638C135.354 54.3638 135.384 54.3638 135.414 54.3638C135.505 54.3638 135.596 54.3638 135.686 54.3638C135.777 54.3638 135.867 54.3477 135.958 54.3156C136.018 54.2834 136.094 54.2513 136.184 54.2191C136.275 54.187 136.365 54.1548 136.456 54.1227C136.607 54.0584 136.742 53.962 136.863 53.8334C137.014 53.7048 137.15 53.5763 137.271 53.4477C137.391 53.3191 137.482 53.1905 137.542 53.062C137.633 52.9013 137.693 52.7566 137.723 52.628C137.784 52.4673 137.814 52.2905 137.814 52.0977C137.844 51.8727 137.859 51.6477 137.859 51.4227V42.2136C137.859 41.5064 137.98 40.8314 138.221 40.1885C138.493 39.5135 138.87 38.9189 139.353 38.4046C139.866 37.8581 140.409 37.4563 140.983 37.1992C141.587 36.942 142.235 36.8135 142.93 36.8135C143.624 36.8135 144.273 36.942 144.876 37.1992C145.48 37.4563 146.023 37.8581 146.506 38.4046C147.019 38.9189 147.396 39.4975 147.638 40.1403C147.879 40.751 148 41.4261 148 42.1654V51.4227C148 53.3191 147.789 54.9745 147.366 56.3888C146.944 57.8031 146.325 58.9924 145.51 59.9567C144.665 60.9532 143.594 61.7407 142.296 62.3193C141.028 62.8979 139.519 63.2836 137.769 63.4764C137.738 63.4764 137.693 63.4764 137.633 63.4764C137.572 63.4764 137.527 63.4925 137.497 63.5247C137.437 63.5247 137.376 63.5247 137.316 63.5247C137.286 63.5247 137.24 63.5247 137.18 63.5247C137.15 63.5247 137.105 63.5247 137.044 63.5247C136.984 63.5247 136.939 63.5407 136.908 63.5729C136.848 63.5729 136.788 63.5729 136.727 63.5729C136.697 63.5729 136.652 63.5729 136.592 63.5729C136.531 63.5729 136.471 63.5729 136.41 63.5729C136.35 63.5729 136.305 63.5889 136.275 63.6211C136.214 63.6211 136.154 63.6211 136.094 63.6211C136.063 63.6211 136.018 63.6211 135.958 63.6211C135.867 63.6211 135.777 63.6211 135.686 63.6211C135.596 63.6211 135.505 63.6211 135.414 63.6211C135.324 63.6211 135.218 63.6211 135.098 63.6211C135.007 63.6211 134.916 63.6211 134.826 63.6211C134.705 63.5889 134.6 63.5729 134.509 63.5729C134.418 63.5729 134.328 63.5729 134.237 63.5729C134.147 63.5729 134.056 63.5729 133.966 63.5729C133.875 63.5729 133.785 63.5568 133.694 63.5247C133.573 63.5247 133.468 63.5086 133.377 63.4764C133.287 63.4764 133.196 63.4764 133.106 63.4764V63.5247Z" fill="white"/>
<path d="M107.263 63.6694C105.361 63.6373 103.611 63.2998 102.011 62.6569C100.442 62.014 99.0232 61.0497 97.7555 59.764C96.4578 58.4461 95.4769 57.0157 94.8129 55.4728C94.1791 53.8978 93.8622 52.1781 93.8622 50.3138C93.832 48.4495 94.1338 46.7298 94.7676 45.1548C95.4014 43.5476 96.3672 42.069 97.665 40.719C98.9326 39.369 100.366 38.3565 101.966 37.6815C103.565 37.0065 105.331 36.6689 107.263 36.6689C108.138 36.6689 108.983 36.7493 109.798 36.91C110.613 37.0386 111.397 37.2475 112.152 37.5368C112.937 37.8261 113.661 38.1958 114.325 38.6458C115.019 39.0636 115.668 39.5458 116.272 40.0922C116.966 40.7351 117.585 41.4262 118.128 42.1655C118.671 42.9048 119.124 43.6923 119.486 44.528C119.848 45.3637 120.12 46.2155 120.301 47.0834C120.512 47.9513 120.633 48.8192 120.663 49.687C120.663 49.7192 120.663 49.7513 120.663 49.7835C120.663 49.8156 120.663 49.8477 120.663 49.8799C120.663 49.8799 120.663 49.896 120.663 49.9281C120.663 49.9602 120.663 49.9924 120.663 50.0245C120.663 50.0567 120.663 50.0888 120.663 50.121C120.663 50.121 120.663 50.137 120.663 50.1692C120.663 51.3263 120.512 52.4514 120.21 53.5442C119.939 54.6371 119.531 55.7139 118.988 56.7747C118.445 57.8354 117.766 58.7836 116.951 59.6193C116.136 60.4551 115.2 61.1944 114.144 61.8372C113.661 62.1587 113.148 62.4319 112.605 62.6569C112.061 62.8819 111.488 63.0426 110.884 63.1391C110.311 63.2998 109.722 63.4123 109.119 63.4766C108.515 63.573 107.896 63.6212 107.263 63.6212V63.6694ZM103.731 50.2174C103.701 50.9246 103.777 51.5513 103.958 52.0978C104.139 52.6442 104.411 53.1264 104.773 53.5442C105.135 53.9621 105.512 54.2675 105.904 54.4603C106.327 54.6532 106.78 54.7496 107.263 54.7496C107.293 54.7496 107.323 54.7496 107.353 54.7496C107.383 54.7496 107.414 54.7496 107.444 54.7496C107.444 54.7496 107.459 54.7496 107.489 54.7496C107.519 54.7496 107.549 54.7496 107.58 54.7496C107.64 54.7496 107.7 54.7496 107.761 54.7496C107.821 54.7175 107.881 54.6853 107.942 54.6532C108.334 54.5889 108.681 54.4764 108.983 54.3157C109.315 54.1228 109.587 53.8817 109.798 53.5925C110.039 53.3032 110.235 52.9657 110.386 52.5799C110.537 52.1942 110.643 51.7442 110.703 51.2299C110.703 51.1978 110.703 51.1656 110.703 51.1335C110.703 51.1013 110.718 51.0531 110.749 50.9888C110.749 50.9567 110.749 50.9246 110.749 50.8924C110.749 50.8281 110.749 50.7799 110.749 50.7478C110.749 50.6835 110.749 50.6353 110.749 50.6031C110.749 50.571 110.764 50.5228 110.794 50.4585C110.794 50.4263 110.794 50.3942 110.794 50.362C110.794 50.2978 110.794 50.2495 110.794 50.2174C110.794 49.9924 110.779 49.7835 110.749 49.5906C110.718 49.3656 110.673 49.1567 110.613 48.9638C110.583 48.7709 110.522 48.5781 110.432 48.3852C110.371 48.1924 110.296 48.0156 110.205 47.8549C110.024 47.5334 109.813 47.2602 109.572 47.0352C109.36 46.7781 109.134 46.5852 108.892 46.4566C108.651 46.2959 108.394 46.1834 108.123 46.1191C107.851 46.0227 107.564 45.9745 107.263 45.9745C106.961 45.9745 106.659 46.0227 106.357 46.1191C106.086 46.1834 105.829 46.2959 105.588 46.4566C105.346 46.5852 105.12 46.7781 104.908 47.0352C104.697 47.2602 104.501 47.5334 104.32 47.8549C104.229 48.0156 104.139 48.1924 104.048 48.3852C103.988 48.5781 103.928 48.7709 103.867 48.9638C103.837 49.1567 103.807 49.3656 103.777 49.5906C103.747 49.7835 103.731 50.0085 103.731 50.2656V50.2174Z" fill="white"/>
<path d="M86.4757 75C85.8117 74.9678 85.1779 74.8071 84.5743 74.5178C84.0008 74.2607 83.4727 73.875 82.9898 73.3607C82.5069 72.8464 82.1447 72.2839 81.9033 71.6731C81.6618 71.0624 81.5411 70.3874 81.5411 69.6481V42.2137C81.5411 41.8923 81.5713 41.5548 81.6316 41.2012C81.692 40.8476 81.7825 40.5101 81.9033 40.1887C82.0542 39.8672 82.2202 39.5619 82.4012 39.2726C82.5823 38.9833 82.7785 38.7101 82.9898 38.4529C83.2312 38.1958 83.4878 37.9708 83.7594 37.7779C84.0612 37.5529 84.363 37.3761 84.6648 37.2475C84.9666 37.119 85.2685 37.0225 85.5703 36.9582C85.9023 36.894 86.2343 36.8618 86.5663 36.8618C86.5964 36.8618 86.6266 36.8618 86.6568 36.8618C86.687 36.8618 86.7172 36.8618 86.7473 36.8618C86.7775 36.8618 86.7926 36.8618 86.7926 36.8618C86.8228 36.8618 86.853 36.8618 86.8832 36.8618C86.9133 36.8618 86.9435 36.8618 86.9737 36.8618C87.1246 36.894 87.2604 36.9261 87.3811 36.9582C87.5321 36.9904 87.683 37.0225 87.8339 37.0547C87.9546 37.0868 88.0904 37.135 88.2413 37.1993C88.3922 37.2315 88.528 37.2797 88.6488 37.344C88.9204 37.4725 89.1769 37.6333 89.4184 37.8261C89.6598 37.9868 89.8862 38.1958 90.0975 38.4529C90.3389 38.7101 90.5502 38.9833 90.7313 39.2726C90.9124 39.5619 91.0633 39.8833 91.184 40.2369C91.3349 40.5583 91.4405 40.8958 91.5009 41.2494C91.5613 41.603 91.5914 41.9565 91.5914 42.3101V69.6481C91.5914 70.3874 91.4707 71.0624 91.2293 71.6731C90.9878 72.316 90.6105 72.8946 90.0975 73.4089C89.6146 73.9553 89.0562 74.341 88.4224 74.566C87.8188 74.8232 87.1699 74.9518 86.4757 74.9518V75Z" fill="white"/>
<path d="M61.8144 36.862C61.9049 36.8942 61.9954 36.9102 62.086 36.9102C62.1765 36.8781 62.2822 36.846 62.4029 36.8138C62.4934 36.8138 62.584 36.8138 62.6745 36.8138C62.7651 36.7817 62.8556 36.7656 62.9462 36.7656C63.1272 36.7335 63.3083 36.7174 63.4894 36.7174C63.6705 36.6852 63.8516 36.6692 64.0327 36.6692C64.6061 36.6692 65.1494 36.7174 65.6625 36.8138C66.1756 36.9102 66.6735 37.0549 67.1564 37.2478C67.6393 37.4406 68.077 37.6817 68.4693 37.971C68.8919 38.2603 69.2842 38.5817 69.6464 38.9353V39.0317L73.8114 36.6692C73.8718 36.6692 73.917 36.6692 73.9472 36.6692C74.0076 36.637 74.0529 36.6049 74.083 36.5727C74.1434 36.5406 74.2038 36.5245 74.2641 36.5245C74.3245 36.4924 74.3849 36.4763 74.4452 36.4763C74.4754 36.4763 74.5056 36.4763 74.5358 36.4763C74.5659 36.4763 74.5961 36.4602 74.6263 36.4281C74.6263 36.4281 74.6414 36.4281 74.6716 36.4281C74.7017 36.4281 74.7319 36.4281 74.7621 36.4281C74.7923 36.4281 74.8225 36.4281 74.8527 36.4281C74.8828 36.4281 74.913 36.412 74.9432 36.3799C74.9432 36.3799 74.9583 36.3799 74.9885 36.3799C75.0187 36.3799 75.0488 36.3799 75.079 36.3799C75.2299 36.3799 75.3808 36.412 75.5317 36.4763C75.7128 36.5085 75.8788 36.5567 76.0297 36.621C76.1806 36.6852 76.3315 36.7656 76.4824 36.862C76.6334 36.9585 76.7692 37.071 76.8899 37.1995C77.1917 37.521 77.4482 37.8746 77.6595 38.2603C77.901 38.6139 78.0971 38.9996 78.248 39.4174C78.399 39.8353 78.5197 40.2692 78.6102 40.7192C78.7008 41.1371 78.746 41.571 78.746 42.0211V58.1731C78.746 59.0088 78.6253 59.7481 78.3839 60.391C78.1726 61.0339 77.8406 61.5964 77.3879 62.0786C76.9352 62.5928 76.4372 62.9625 75.8939 63.1875C75.3808 63.4125 74.8225 63.525 74.2188 63.525C74.1887 63.525 74.1585 63.525 74.1283 63.525C74.0981 63.525 74.0679 63.525 74.0378 63.525C74.0378 63.525 74.0227 63.525 73.9925 63.525C73.9623 63.4929 73.9321 63.4768 73.9019 63.4768C73.8718 63.4768 73.8416 63.4768 73.8114 63.4768C73.8114 63.4768 73.7963 63.4768 73.7661 63.4768L69.6464 61.0178V61.2589C69.3144 61.6446 68.9371 61.9821 68.5146 62.2714C68.1222 62.5607 67.6997 62.8018 67.247 62.9946C66.7943 63.1232 66.2963 63.2357 65.753 63.3321C65.2098 63.4607 64.6363 63.525 64.0327 63.525C63.8214 63.525 63.6101 63.5089 63.3989 63.4768C63.2178 63.4768 63.0216 63.4607 62.8103 63.4286C62.6896 63.4286 62.5689 63.4125 62.4482 63.3804C62.3576 63.3804 62.2671 63.3643 62.1765 63.3321C62.0558 63.3321 61.9351 63.3161 61.8144 63.2839C61.7238 63.2839 61.6182 63.2679 61.4975 63.2357C60.8033 63.1393 60.1091 62.9464 59.415 62.6571C58.751 62.3678 58.1021 61.9821 57.4683 61.5C56.8344 61.0178 56.2308 60.4714 55.6574 59.8607C55.1141 59.2499 54.601 58.5588 54.1181 57.7874C53.8163 57.241 53.5296 56.6945 53.258 56.1481C53.0165 55.5695 52.8203 54.9748 52.6694 54.3641C52.4884 53.7213 52.3525 53.0784 52.262 52.4355C52.2016 51.7927 52.1714 51.1337 52.1714 50.4587C52.1714 50.4266 52.1714 50.3944 52.1714 50.3623C52.1714 50.3301 52.1714 50.298 52.1714 50.2658C52.1714 50.2658 52.1714 50.2498 52.1714 50.2176C52.1714 50.1855 52.1714 50.1533 52.1714 50.1212C52.1714 50.0569 52.1714 49.9926 52.1714 49.9283C52.1714 49.864 52.1714 49.7998 52.1714 49.7355C52.2318 48.0962 52.5034 46.5693 52.9863 45.155C53.4994 43.7407 54.2238 42.4389 55.1594 41.2496C56.095 40.0603 57.1061 39.1121 58.1926 38.4049C59.3093 37.6656 60.5166 37.1674 61.8144 36.9102V36.862ZM62.1765 50.3623C62.1765 50.6837 62.1916 50.973 62.2218 51.2301C62.252 51.4873 62.3124 51.7284 62.4029 51.9534C62.4633 52.1784 62.5538 52.4034 62.6745 52.6284C62.7952 52.8534 62.9311 53.0623 63.082 53.2552C63.2329 53.4802 63.3989 53.673 63.58 53.8338C63.7912 53.9945 64.0025 54.1231 64.2138 54.2195C64.4552 54.3481 64.6816 54.4445 64.8928 54.5088C65.1343 54.5409 65.3607 54.557 65.5719 54.557C65.6021 54.557 65.6323 54.557 65.6625 54.557C65.6927 54.557 65.7228 54.557 65.753 54.557C65.7832 54.557 65.8134 54.557 65.8436 54.557C66.085 54.5248 66.3265 54.4606 66.5679 54.3641C66.8395 54.2677 67.0961 54.1391 67.3375 53.9784C67.579 53.8177 67.7902 53.6248 67.9713 53.3998C68.1826 53.1748 68.3637 52.9016 68.5146 52.5802C68.575 52.4837 68.6202 52.3873 68.6504 52.2909C68.7108 52.1623 68.756 52.0337 68.7862 51.9052C68.8466 51.8087 68.8768 51.6962 68.8768 51.5676C68.907 51.4391 68.9371 51.3105 68.9673 51.1819C68.9673 51.1498 68.9673 51.1176 68.9673 51.0855C68.9673 51.0534 68.9824 51.0051 69.0126 50.9409C69.0126 50.9087 69.0126 50.8766 69.0126 50.8444C69.0126 50.8123 69.0126 50.7801 69.0126 50.748C69.0126 50.7158 69.0126 50.6837 69.0126 50.6516C69.0126 50.6194 69.0277 50.5712 69.0579 50.5069C69.0579 50.4748 69.0579 50.4426 69.0579 50.4105C69.0579 50.3783 69.0579 50.3462 69.0579 50.3141C69.0579 50.2819 69.0579 50.2658 69.0579 50.2658C69.0579 50.2337 69.0579 50.2016 69.0579 50.1694C69.0579 50.1373 69.0579 50.1212 69.0579 50.1212C69.0579 50.0891 69.0579 50.0569 69.0579 50.0248C69.0277 49.9926 69.0126 49.9766 69.0126 49.9766C69.0126 49.9444 69.0126 49.9123 69.0126 49.8801C69.0126 49.848 69.0126 49.8319 69.0126 49.8319C69.0126 49.7998 69.0126 49.7676 69.0126 49.7355C68.9522 49.3176 68.8617 48.948 68.741 48.6265C68.6202 48.2729 68.4693 47.9515 68.2882 47.6622C68.1072 47.4051 67.8959 47.1801 67.6544 46.9872C67.4432 46.7622 67.2017 46.5854 66.9301 46.4568C66.8697 46.4247 66.8094 46.4086 66.749 46.4086C66.6886 46.3765 66.6283 46.3443 66.5679 46.3122C66.5075 46.3122 66.4472 46.3122 66.3868 46.3122C66.3566 46.2801 66.3114 46.2479 66.251 46.2158C66.2208 46.2158 66.1906 46.2158 66.1605 46.2158C66.1303 46.2158 66.1001 46.1997 66.0699 46.1676C66.0397 46.1676 66.0096 46.1676 65.9794 46.1676C65.9492 46.1676 65.919 46.1676 65.8888 46.1676C65.8586 46.1676 65.8285 46.1676 65.7983 46.1676C65.7681 46.1676 65.7379 46.1515 65.7077 46.1193C65.6776 46.1193 65.6474 46.1193 65.6172 46.1193C65.587 46.1193 65.5568 46.1193 65.5267 46.1193C65.1343 46.1515 64.757 46.2479 64.3949 46.4086C64.0629 46.5693 63.746 46.7944 63.4441 47.0836C63.1423 47.3729 62.8858 47.7265 62.6745 48.1444C62.4934 48.5301 62.3576 48.9962 62.2671 49.5426C62.2671 49.5748 62.2671 49.6069 62.2671 49.639C62.2369 49.6712 62.2218 49.7033 62.2218 49.7355C62.2218 49.7355 62.2218 49.7515 62.2218 49.7837C62.2218 49.8158 62.2218 49.848 62.2218 49.8801C62.2218 49.9123 62.2218 49.9444 62.2218 49.9766C62.2218 50.0087 62.2218 50.0408 62.2218 50.073C62.1916 50.1051 62.1765 50.1373 62.1765 50.1694C62.1765 50.1694 62.1765 50.1855 62.1765 50.2176C62.1765 50.2498 62.1765 50.2819 62.1765 50.3141C62.1765 50.3462 62.1765 50.3783 62.1765 50.4105V50.3623Z" fill="white"/>
<path d="M44.7861 63.5734C44.0919 63.5412 43.443 63.3966 42.8394 63.1394C42.266 62.9144 41.7227 62.5448 41.2096 62.0305C40.7267 61.5162 40.3646 60.9537 40.1231 60.343C39.8817 59.7001 39.7609 59.009 39.7609 58.2697V42.1176C39.7609 41.4105 39.8817 40.7355 40.1231 40.0926C40.3947 39.4497 40.772 38.8711 41.2549 38.3568C41.768 37.8104 42.3112 37.4247 42.8847 37.1997C43.4883 36.9425 44.1372 36.814 44.8314 36.814C45.5255 36.8461 46.1593 36.9908 46.7328 37.2479C47.3364 37.505 47.8797 37.9068 48.3626 38.4533C48.8757 38.9676 49.2529 39.5462 49.4944 40.189C49.7358 40.7997 49.8565 41.4748 49.8565 42.2141V58.1733C49.8565 58.9447 49.7358 59.6519 49.4944 60.2947C49.2529 60.9055 48.8757 61.484 48.3626 62.0305C47.8797 62.5448 47.3364 62.9144 46.7328 63.1394C46.1292 63.3966 45.4803 63.5252 44.7861 63.5252V63.5734Z" fill="white"/>
<path d="M3.62175 19.9867C3.6972 19.9867 3.75379 19.9867 3.79152 19.9867C3.86697 19.9465 3.92356 19.9063 3.96129 19.8662C4.03674 19.8662 4.09333 19.8662 4.13106 19.8662C4.20651 19.826 4.2631 19.7858 4.30083 19.7456C4.41401 19.6653 4.52719 19.6251 4.64037 19.6251C4.79127 19.5849 4.94218 19.5447 5.09309 19.5045C5.16854 19.5045 5.22513 19.5045 5.26286 19.5045C5.33831 19.4644 5.41376 19.4443 5.48921 19.4443C5.52694 19.4041 5.58353 19.384 5.65898 19.384C5.73444 19.384 5.79103 19.384 5.82875 19.384C5.90421 19.384 5.9608 19.384 5.99852 19.384C6.07398 19.384 6.14943 19.3639 6.22488 19.3237C6.26261 19.3237 6.3192 19.3237 6.39465 19.3237C6.47011 19.3237 6.52669 19.3237 6.56442 19.3237C7.20577 19.3237 7.82826 19.4242 8.43189 19.6251C9.03551 19.826 9.62027 20.1273 10.1862 20.5291C10.7521 20.9309 11.2237 21.4131 11.6009 21.9756C12.0159 22.5381 12.3554 23.1609 12.6195 23.8439L19.2405 43.3108L25.9181 23.7836C26.1445 23.1408 26.4463 22.5381 26.8236 21.9756C27.2386 21.4131 27.729 20.9309 28.2949 20.5291C28.8608 20.1273 29.4456 19.826 30.0492 19.6251C30.6528 19.4242 31.2942 19.3237 31.9733 19.3237C32.0864 19.3237 32.1996 19.3237 32.3128 19.3237C32.426 19.3237 32.558 19.3438 32.7089 19.384C32.8221 19.384 32.9353 19.4041 33.0485 19.4443C33.1616 19.4443 33.2748 19.4644 33.388 19.5045C33.6144 19.5447 33.8407 19.6251 34.0671 19.7456C34.3312 19.826 34.5953 19.9264 34.8593 20.047C35.463 20.3684 35.9911 20.7501 36.4439 21.1921C36.8966 21.634 37.2927 22.1363 37.6322 22.6988C37.9341 23.2211 38.1604 23.7836 38.3113 24.3863C38.5 24.989 38.5943 25.5917 38.5943 26.1944C38.5943 26.4355 38.5754 26.6765 38.5377 26.9176C38.5377 27.1185 38.5188 27.3194 38.4811 27.5203C38.4434 27.7212 38.3868 27.9422 38.3113 28.1833C38.2359 28.3842 38.1604 28.5851 38.085 28.7859L25.4088 59.0409C25.1448 59.724 24.8618 60.3267 24.56 60.849C24.2582 61.3312 23.9564 61.733 23.6546 62.0544C23.315 62.416 22.9566 62.6973 22.5793 62.8982C22.2021 63.0991 21.806 63.2598 21.391 63.3803C21.2023 63.4607 20.9948 63.5008 20.7685 63.5008C20.5798 63.541 20.3912 63.5812 20.2026 63.6214C20.0139 63.6616 19.8253 63.6817 19.6367 63.6817C19.448 63.7218 19.2594 63.7419 19.0708 63.7419C18.3917 63.7419 17.7692 63.6415 17.2033 63.4406C16.6374 63.2397 16.0904 62.9785 15.5622 62.6571C15.0718 62.2553 14.6002 61.753 14.1475 61.1504C13.7325 60.5477 13.3741 59.8646 13.0723 59.1012L0.396129 28.7257C0.433855 28.6855 0.433855 28.6252 0.396129 28.5449C0.358402 28.4243 0.320676 28.3038 0.282949 28.1833C0.245223 28.0627 0.226359 27.9422 0.226359 27.8216C0.188633 27.7011 0.150906 27.5806 0.11318 27.46C0.11318 27.4199 0.11318 27.3797 0.11318 27.3395C0.11318 27.2993 0.0943164 27.239 0.0565898 27.1587C0.0565898 27.1185 0.0565898 27.0783 0.0565898 27.0382C0.0565898 26.9578 0.0565898 26.8975 0.0565898 26.8573C0.0565898 26.777 0.0565898 26.7167 0.0565898 26.6765C0.0565898 26.6364 0.0377266 26.5761 0 26.4957C0 26.4556 0 26.4154 0 26.3752C0 26.2948 0 26.2346 0 26.1944C0 25.5515 0.0943164 24.9287 0.282949 24.3261C0.433855 23.7234 0.641352 23.1609 0.905437 22.6385C1.20725 22.076 1.58452 21.5939 2.03723 21.1921C2.48995 20.7501 3.01812 20.3684 3.62175 20.047V19.9867Z" fill="white"/>
<path d="M85.3254 20.5308C86.8213 20.5308 88.0539 19.3118 87.8381 17.8315C87.1894 13.3827 84.9498 9.22174 81.422 6.01332C77.1884 2.16306 71.4465 4.11094e-07 65.4593 0C59.4722 -4.11094e-07 53.7302 2.16306 49.4967 6.01332C45.9688 9.22174 43.7292 13.3827 43.0806 17.8315C42.8647 19.3118 44.0974 20.5308 45.5933 20.5308C47.0892 20.5308 48.2761 19.3074 48.5591 17.8385C49.1636 14.6996 50.816 11.7808 53.3271 9.497C56.5448 6.57067 60.9089 4.92667 65.4593 4.92667C70.0098 4.92667 74.3739 6.57067 77.5915 9.49701C80.1027 11.7808 81.755 14.6996 82.3596 17.8385C82.6425 19.3074 83.8295 20.5308 85.3254 20.5308Z" fill="white"/>
<path fill-rule="evenodd" clip-rule="evenodd" d="M44.2391 33.6215C39.0254 26.6932 39.5371 22.7058 43.4614 22.4484C50.0022 22.0194 49.1184 28.1996 44.2391 33.6215ZM46.3648 26.1296C46.3648 27.1604 45.504 27.996 44.4421 27.996C43.3803 27.996 42.5195 27.1604 42.5195 26.1296C42.5195 25.0988 43.3803 24.2632 44.4421 24.2632C45.504 24.2632 46.3648 25.0988 46.3648 26.1296Z" fill="white"/>
<path fill-rule="evenodd" clip-rule="evenodd" d="M86.2154 33.6733C81.0018 26.7449 81.5135 22.7576 85.4378 22.5001C91.9784 22.0711 91.0946 28.2514 86.2154 33.6733ZM88.3415 26.1815C88.3415 27.2123 87.4807 28.0479 86.4189 28.0479C85.3571 28.0479 84.4963 27.2123 84.4963 26.1815C84.4963 25.1506 85.3571 24.315 86.4189 24.315C87.4807 24.315 88.3415 25.1506 88.3415 26.1815Z" fill="white"/>
</svg>
