<svg width="448" height="349" viewBox="0 0 448 349" fill="none" xmlns="http://www.w3.org/2000/svg">
<path d="M58.5525 248.276C-2.72087 253.051 -29.7766 335.014 58.5525 328.648" stroke="url(#paint0_linear_944_5513)" stroke-width="3" stroke-dasharray="6 6"/>
<path d="M285.343 57.2939C402.32 57.2939 531.232 241.91 372.081 237.931" stroke="#6849B3" stroke-width="3" stroke-dasharray="6 6"/>
<path d="M253.842 49.5697L262.083 41.6718L272.47 52.8917L253.842 49.5697Z" fill="#27105E"/>
<path d="M265.611 28.9419L181.895 21.9956L260.556 40.2488L272.47 52.8916L265.611 28.9419Z" fill="#482E87"/>
<path d="M276.418 6.75793L181.895 21.9956L265.611 28.9419L276.418 6.75793Z" fill="#7C56D9"/>
<path d="M256.092 71.6366L181.895 21.9956L262.379 40.412L256.092 71.6366Z" fill="#6849B3"/>
<path d="M348.652 270.703C344.492 270.167 340.869 269.21 337.785 267.832C334.7 266.453 332.19 264.577 330.253 262.203C328.244 259.906 326.738 257.072 325.734 253.703C324.801 250.334 324.335 246.428 324.335 241.987V219.702C324.335 218.018 324.622 216.448 325.196 214.993C325.841 213.461 326.738 212.083 327.886 210.858C329.105 209.556 330.396 208.599 331.759 207.986C333.194 207.373 334.736 207.067 336.386 207.067C338.036 207.067 339.542 207.373 340.905 207.986C342.34 208.599 343.631 209.556 344.779 210.858C345.998 212.083 346.895 213.5 347.469 215.108C348.043 216.639 348.33 218.286 348.33 220.047V241.757C348.33 242.37 348.365 242.944 348.437 243.48C348.509 243.939 348.581 244.361 348.652 244.743C348.796 245.05 348.939 245.394 349.083 245.777C349.226 246.084 349.441 246.39 349.728 246.696C349.944 247.002 350.159 247.271 350.374 247.5C350.589 247.73 350.84 247.921 351.127 248.075C351.414 248.228 351.701 248.381 351.988 248.534C352.347 248.611 352.705 248.687 353.064 248.764C353.064 248.764 353.1 248.764 353.172 248.764C353.172 248.84 353.172 248.879 353.172 248.879C353.243 248.879 353.279 248.879 353.279 248.879C353.351 248.879 353.387 248.879 353.387 248.879C353.459 248.879 353.53 248.879 353.602 248.879C353.674 248.879 353.745 248.879 353.817 248.879C353.889 248.879 353.925 248.879 353.925 248.879C353.996 248.879 354.068 248.879 354.14 248.879C354.355 248.879 354.57 248.879 354.786 248.879C355.001 248.879 355.216 248.84 355.431 248.764C355.575 248.687 355.754 248.611 355.969 248.534C356.184 248.457 356.4 248.381 356.615 248.304C356.973 248.151 357.296 247.921 357.583 247.615C357.942 247.309 358.265 247.002 358.552 246.696C358.839 246.39 359.054 246.084 359.197 245.777C359.412 245.394 359.556 245.05 359.628 244.743C359.771 244.361 359.843 243.939 359.843 243.48C359.915 242.944 359.95 242.408 359.95 241.872V219.932C359.95 218.248 360.237 216.639 360.811 215.108C361.457 213.5 362.353 212.083 363.501 210.858C364.721 209.556 366.012 208.599 367.375 207.986C368.809 207.373 370.352 207.067 372.002 207.067C373.651 207.067 375.194 207.373 376.628 207.986C378.063 208.599 379.354 209.556 380.502 210.858C381.722 212.083 382.618 213.461 383.192 214.993C383.766 216.448 384.053 218.056 384.053 219.817V241.872C384.053 246.39 383.551 250.334 382.546 253.703C381.542 257.072 380.072 259.906 378.135 262.203C376.126 264.577 373.58 266.453 370.495 267.832C367.482 269.21 363.896 270.129 359.735 270.588C359.663 270.588 359.556 270.588 359.412 270.588C359.269 270.588 359.161 270.627 359.09 270.703C358.946 270.703 358.803 270.703 358.659 270.703C358.587 270.703 358.48 270.703 358.336 270.703C358.265 270.703 358.157 270.703 358.014 270.703C357.87 270.703 357.763 270.742 357.691 270.818C357.547 270.818 357.404 270.818 357.26 270.818C357.189 270.818 357.081 270.818 356.938 270.818C356.794 270.818 356.651 270.818 356.507 270.818C356.364 270.818 356.256 270.856 356.184 270.933C356.041 270.933 355.897 270.933 355.754 270.933C355.682 270.933 355.575 270.933 355.431 270.933C355.216 270.933 355.001 270.933 354.786 270.933C354.57 270.933 354.355 270.933 354.14 270.933C353.925 270.933 353.674 270.933 353.387 270.933C353.172 270.933 352.956 270.933 352.741 270.933C352.454 270.856 352.203 270.818 351.988 270.818C351.773 270.818 351.558 270.818 351.342 270.818C351.127 270.818 350.912 270.818 350.697 270.818C350.482 270.818 350.266 270.78 350.051 270.703C349.764 270.703 349.513 270.665 349.298 270.588C349.083 270.588 348.868 270.588 348.652 270.588V270.703Z" fill="white"/>
<path d="M287.23 271.048C282.711 270.971 278.55 270.167 274.748 268.636C271.018 267.104 267.647 264.807 264.634 261.744C261.549 258.604 259.218 255.196 257.64 251.521C256.133 247.768 255.38 243.671 255.38 239.23C255.308 234.788 256.026 230.692 257.532 226.939C259.039 223.11 261.334 219.588 264.419 216.371C267.431 213.155 270.839 210.743 274.641 209.135C278.442 207.527 282.639 206.723 287.23 206.723C289.31 206.723 291.319 206.914 293.255 207.297C295.192 207.603 297.057 208.101 298.851 208.79C300.716 209.479 302.437 210.36 304.015 211.432C305.665 212.428 307.208 213.576 308.642 214.878C310.292 216.41 311.763 218.056 313.054 219.817C314.345 221.579 315.421 223.455 316.282 225.446C317.143 227.437 317.788 229.466 318.219 231.534C318.721 233.601 319.008 235.669 319.08 237.737C319.08 237.813 319.08 237.89 319.08 237.966C319.08 238.043 319.08 238.12 319.08 238.196C319.08 238.196 319.08 238.234 319.08 238.311C319.08 238.388 319.08 238.464 319.08 238.541C319.08 238.617 319.08 238.694 319.08 238.77C319.08 238.77 319.08 238.809 319.08 238.885C319.08 241.642 318.721 244.322 318.003 246.926C317.358 249.53 316.39 252.095 315.098 254.622C313.807 257.149 312.193 259.408 310.256 261.399C308.319 263.39 306.096 265.152 303.585 266.683C302.437 267.449 301.218 268.1 299.927 268.636C298.635 269.172 297.272 269.555 295.838 269.784C294.475 270.167 293.076 270.435 291.641 270.589C290.207 270.818 288.736 270.933 287.23 270.933V271.048ZM278.837 239C278.765 240.685 278.945 242.178 279.375 243.48C279.805 244.782 280.451 245.931 281.312 246.926C282.173 247.922 283.069 248.649 284.002 249.108C285.006 249.568 286.082 249.798 287.23 249.798C287.302 249.798 287.373 249.798 287.445 249.798C287.517 249.798 287.588 249.798 287.66 249.798C287.66 249.798 287.696 249.798 287.768 249.798C287.84 249.798 287.911 249.798 287.983 249.798C288.126 249.798 288.27 249.798 288.413 249.798C288.557 249.721 288.7 249.645 288.844 249.568C289.776 249.415 290.601 249.147 291.319 248.764C292.108 248.304 292.753 247.73 293.255 247.041C293.829 246.352 294.296 245.548 294.654 244.629C295.013 243.71 295.264 242.638 295.407 241.412C295.407 241.336 295.407 241.259 295.407 241.183C295.407 241.106 295.443 240.991 295.515 240.838C295.515 240.762 295.515 240.685 295.515 240.608C295.515 240.455 295.515 240.34 295.515 240.264C295.515 240.111 295.515 239.996 295.515 239.919C295.515 239.843 295.551 239.728 295.623 239.575C295.623 239.498 295.623 239.421 295.623 239.345C295.623 239.192 295.623 239.077 295.623 239C295.623 238.464 295.587 237.966 295.515 237.507C295.443 236.971 295.336 236.473 295.192 236.014C295.121 235.554 294.977 235.095 294.762 234.635C294.618 234.176 294.439 233.755 294.224 233.372C293.793 232.606 293.291 231.955 292.717 231.419C292.215 230.806 291.677 230.347 291.103 230.041C290.53 229.658 289.92 229.39 289.274 229.237C288.629 229.007 287.947 228.892 287.23 228.892C286.512 228.892 285.795 229.007 285.078 229.237C284.432 229.39 283.822 229.658 283.249 230.041C282.675 230.347 282.137 230.806 281.635 231.419C281.132 231.955 280.666 232.606 280.236 233.372C280.021 233.755 279.805 234.176 279.59 234.635C279.447 235.095 279.303 235.554 279.16 236.014C279.088 236.473 279.016 236.971 278.945 237.507C278.873 237.966 278.837 238.502 278.837 239.115V239Z" fill="white"/>
<path d="M237.824 298.042C236.246 297.965 234.74 297.583 233.305 296.893C231.942 296.281 230.687 295.362 229.539 294.136C228.391 292.911 227.531 291.571 226.957 290.116C226.383 288.661 226.096 287.053 226.096 285.292V219.933C226.096 219.167 226.168 218.363 226.311 217.52C226.455 216.678 226.67 215.874 226.957 215.108C227.315 214.342 227.71 213.615 228.14 212.926C228.571 212.237 229.037 211.586 229.539 210.973C230.113 210.36 230.723 209.824 231.368 209.365C232.086 208.829 232.803 208.408 233.52 208.101C234.238 207.795 234.955 207.565 235.672 207.412C236.461 207.259 237.251 207.182 238.04 207.182C238.111 207.182 238.183 207.182 238.255 207.182C238.327 207.182 238.398 207.182 238.47 207.182C238.542 207.182 238.578 207.182 238.578 207.182C238.649 207.182 238.721 207.182 238.793 207.182C238.865 207.182 238.936 207.182 239.008 207.182C239.367 207.259 239.689 207.336 239.976 207.412C240.335 207.489 240.694 207.565 241.052 207.642C241.339 207.718 241.662 207.833 242.021 207.986C242.379 208.063 242.702 208.178 242.989 208.331C243.635 208.637 244.245 209.02 244.818 209.48C245.392 209.863 245.93 210.36 246.432 210.973C247.006 211.586 247.508 212.237 247.939 212.926C248.369 213.615 248.728 214.381 249.015 215.223C249.373 215.989 249.625 216.793 249.768 217.635C249.911 218.478 249.983 219.32 249.983 220.162V285.292C249.983 287.053 249.696 288.661 249.122 290.116C248.549 291.648 247.652 293.026 246.432 294.251C245.285 295.553 243.958 296.472 242.451 297.008C241.017 297.621 239.474 297.927 237.824 297.927V298.042Z" fill="white"/>
<path d="M179.21 207.182C179.425 207.259 179.641 207.297 179.856 207.297C180.071 207.221 180.322 207.144 180.609 207.067C180.824 207.067 181.039 207.067 181.255 207.067C181.47 206.991 181.685 206.953 181.9 206.953C182.331 206.876 182.761 206.838 183.191 206.838C183.622 206.761 184.052 206.723 184.483 206.723C185.845 206.723 187.137 206.838 188.356 207.067C189.576 207.297 190.759 207.642 191.907 208.101C193.055 208.561 194.095 209.135 195.027 209.824C196.032 210.513 196.964 211.279 197.825 212.122V212.351L207.724 206.723C207.868 206.723 207.975 206.723 208.047 206.723C208.19 206.646 208.298 206.57 208.37 206.493C208.513 206.417 208.657 206.378 208.8 206.378C208.944 206.302 209.087 206.263 209.231 206.263C209.302 206.263 209.374 206.263 209.446 206.263C209.518 206.263 209.589 206.225 209.661 206.149C209.661 206.149 209.697 206.149 209.769 206.149C209.84 206.149 209.912 206.149 209.984 206.149C210.056 206.149 210.127 206.149 210.199 206.149C210.271 206.149 210.342 206.11 210.414 206.034C210.414 206.034 210.45 206.034 210.522 206.034C210.594 206.034 210.665 206.034 210.737 206.034C211.096 206.034 211.454 206.11 211.813 206.263C212.243 206.34 212.638 206.455 212.997 206.608C213.355 206.761 213.714 206.953 214.073 207.182C214.431 207.412 214.754 207.68 215.041 207.986C215.758 208.752 216.368 209.595 216.87 210.513C217.444 211.356 217.91 212.275 218.269 213.27C218.628 214.266 218.915 215.3 219.13 216.372C219.345 217.367 219.453 218.401 219.453 219.473V257.953C219.453 259.944 219.166 261.706 218.592 263.237C218.09 264.769 217.301 266.109 216.225 267.258C215.149 268.483 213.965 269.364 212.674 269.9C211.454 270.436 210.127 270.704 208.693 270.704C208.621 270.704 208.549 270.704 208.477 270.704C208.406 270.704 208.334 270.704 208.262 270.704C208.262 270.704 208.226 270.704 208.155 270.704C208.083 270.627 208.011 270.589 207.939 270.589C207.868 270.589 207.796 270.589 207.724 270.589C207.724 270.589 207.688 270.589 207.617 270.589L197.825 264.731V265.305C197.036 266.224 196.139 267.028 195.135 267.717C194.202 268.406 193.198 268.981 192.122 269.44C191.046 269.746 189.863 270.014 188.571 270.244C187.28 270.551 185.917 270.704 184.483 270.704C183.98 270.704 183.478 270.665 182.976 270.589C182.546 270.589 182.079 270.551 181.577 270.474C181.29 270.474 181.003 270.436 180.717 270.359C180.501 270.359 180.286 270.321 180.071 270.244C179.784 270.244 179.497 270.206 179.21 270.129C178.995 270.129 178.744 270.091 178.457 270.014C176.807 269.785 175.157 269.325 173.507 268.636C171.929 267.947 170.387 267.028 168.88 265.879C167.374 264.731 165.939 263.429 164.576 261.974C163.285 260.519 162.066 258.872 160.918 257.035C160.201 255.733 159.519 254.431 158.874 253.129C158.3 251.751 157.834 250.334 157.475 248.879C157.044 247.347 156.722 245.816 156.506 244.284C156.363 242.753 156.291 241.183 156.291 239.575C156.291 239.498 156.291 239.422 156.291 239.345C156.291 239.268 156.291 239.192 156.291 239.115C156.291 239.115 156.291 239.077 156.291 239C156.291 238.924 156.291 238.847 156.291 238.771C156.291 238.618 156.291 238.464 156.291 238.311C156.291 238.158 156.291 238.005 156.291 237.852C156.435 233.946 157.08 230.309 158.228 226.939C159.448 223.57 161.169 220.469 163.393 217.635C165.617 214.802 168.02 212.543 170.602 210.858C173.256 209.097 176.126 207.91 179.21 207.297V207.182ZM180.071 239.345C180.071 240.111 180.107 240.8 180.179 241.413C180.25 242.025 180.394 242.6 180.609 243.136C180.752 243.672 180.968 244.208 181.255 244.744C181.541 245.28 181.864 245.778 182.223 246.237C182.582 246.773 182.976 247.233 183.407 247.615C183.909 247.998 184.411 248.305 184.913 248.534C185.487 248.841 186.025 249.07 186.527 249.224C187.101 249.3 187.639 249.338 188.141 249.338C188.213 249.338 188.284 249.338 188.356 249.338C188.428 249.338 188.5 249.338 188.571 249.338C188.643 249.338 188.715 249.338 188.787 249.338C189.36 249.262 189.934 249.109 190.508 248.879C191.154 248.649 191.763 248.343 192.337 247.96C192.911 247.577 193.413 247.118 193.844 246.582C194.346 246.046 194.776 245.395 195.135 244.629C195.278 244.399 195.386 244.169 195.458 243.94C195.601 243.633 195.709 243.327 195.781 243.021C195.924 242.791 195.996 242.523 195.996 242.217C196.068 241.91 196.139 241.604 196.211 241.298C196.211 241.221 196.211 241.145 196.211 241.068C196.211 240.991 196.247 240.877 196.319 240.723C196.319 240.647 196.319 240.57 196.319 240.494C196.319 240.417 196.319 240.341 196.319 240.264C196.319 240.187 196.319 240.111 196.319 240.034C196.319 239.958 196.354 239.843 196.426 239.69C196.426 239.613 196.426 239.536 196.426 239.46C196.426 239.383 196.426 239.307 196.426 239.23C196.426 239.154 196.426 239.115 196.426 239.115C196.426 239.039 196.426 238.962 196.426 238.886C196.426 238.809 196.426 238.771 196.426 238.771C196.426 238.694 196.426 238.618 196.426 238.541C196.354 238.464 196.319 238.426 196.319 238.426C196.319 238.35 196.319 238.273 196.319 238.196C196.319 238.12 196.319 238.082 196.319 238.082C196.319 238.005 196.319 237.928 196.319 237.852C196.175 236.856 195.96 235.976 195.673 235.21C195.386 234.367 195.027 233.602 194.597 232.913C194.167 232.3 193.664 231.764 193.091 231.304C192.588 230.768 192.015 230.347 191.369 230.041C191.225 229.964 191.082 229.926 190.939 229.926C190.795 229.849 190.652 229.773 190.508 229.696C190.365 229.696 190.221 229.696 190.078 229.696C190.006 229.62 189.898 229.543 189.755 229.467C189.683 229.467 189.611 229.467 189.54 229.467C189.468 229.467 189.396 229.428 189.325 229.352C189.253 229.352 189.181 229.352 189.109 229.352C189.038 229.352 188.966 229.352 188.894 229.352C188.822 229.352 188.751 229.352 188.679 229.352C188.607 229.352 188.535 229.313 188.464 229.237C188.392 229.237 188.32 229.237 188.249 229.237C188.177 229.237 188.105 229.237 188.033 229.237C187.101 229.313 186.204 229.543 185.343 229.926C184.554 230.309 183.801 230.845 183.084 231.534C182.366 232.223 181.757 233.066 181.255 234.061C180.824 234.98 180.501 236.09 180.286 237.392C180.286 237.469 180.286 237.545 180.286 237.622C180.214 237.699 180.179 237.775 180.179 237.852C180.179 237.852 180.179 237.89 180.179 237.967C180.179 238.043 180.179 238.12 180.179 238.196C180.179 238.273 180.179 238.35 180.179 238.426C180.179 238.503 180.179 238.579 180.179 238.656C180.107 238.732 180.071 238.809 180.071 238.886C180.071 238.886 180.071 238.924 180.071 239C180.071 239.077 180.071 239.154 180.071 239.23C180.071 239.307 180.071 239.383 180.071 239.46V239.345Z" fill="white"/>
<path d="M138.738 270.819C137.088 270.742 135.546 270.398 134.111 269.785C132.748 269.249 131.457 268.368 130.238 267.143C129.09 265.918 128.229 264.578 127.655 263.123C127.081 261.591 126.794 259.945 126.794 258.183V219.703C126.794 218.018 127.081 216.41 127.655 214.879C128.301 213.347 129.198 211.969 130.345 210.743C131.565 209.442 132.856 208.523 134.219 207.987C135.654 207.374 137.196 207.068 138.846 207.068C140.496 207.144 142.002 207.489 143.365 208.101C144.8 208.714 146.091 209.671 147.238 210.973C148.458 212.198 149.355 213.577 149.928 215.108C150.502 216.563 150.789 218.171 150.789 219.933V257.954C150.789 259.791 150.502 261.476 149.928 263.008C149.355 264.463 148.458 265.841 147.238 267.143C146.091 268.368 144.8 269.249 143.365 269.785C141.93 270.398 140.388 270.704 138.738 270.704V270.819Z" fill="white"/>
<path d="M40.9005 166.979C41.0798 166.979 41.2143 166.979 41.304 166.979C41.4833 166.883 41.6178 166.787 41.7075 166.692C41.8868 166.692 42.0213 166.692 42.111 166.692C42.2903 166.596 42.4248 166.5 42.5145 166.405C42.7835 166.213 43.0525 166.117 43.3215 166.117C43.6802 166.022 44.0388 165.926 44.3975 165.83C44.5768 165.83 44.7113 165.83 44.801 165.83C44.9803 165.734 45.1597 165.687 45.339 165.687C45.4287 165.591 45.5632 165.543 45.7425 165.543C45.9218 165.543 46.0563 165.543 46.146 165.543C46.3253 165.543 46.4598 165.543 46.5495 165.543C46.7288 165.543 46.9082 165.495 47.0875 165.399C47.1772 165.399 47.3117 165.399 47.491 165.399C47.6704 165.399 47.8049 165.399 47.8945 165.399C49.4189 165.399 50.8984 165.639 52.333 166.117C53.7677 166.596 55.1575 167.314 56.5025 168.271C57.8475 169.228 58.9684 170.377 59.865 171.717C60.8514 173.057 61.6584 174.541 62.2861 176.168L78.0226 222.546L93.8936 176.025C94.4316 174.493 95.149 173.057 96.0456 171.717C97.032 170.377 98.1976 169.228 99.5426 168.271C100.888 167.314 102.277 166.596 103.712 166.117C105.147 165.639 106.671 165.399 108.285 165.399C108.554 165.399 108.823 165.399 109.092 165.399C109.361 165.399 109.675 165.447 110.034 165.543C110.303 165.543 110.572 165.591 110.841 165.687C111.11 165.687 111.379 165.734 111.648 165.83C112.186 165.926 112.724 166.117 113.262 166.405C113.889 166.596 114.517 166.835 115.145 167.122C116.579 167.888 117.835 168.798 118.911 169.851C119.987 170.903 120.928 172.1 121.735 173.44C122.453 174.684 122.991 176.025 123.349 177.46C123.798 178.896 124.022 180.332 124.022 181.768C124.022 182.342 123.977 182.917 123.887 183.491C123.887 183.97 123.842 184.448 123.753 184.927C123.663 185.405 123.529 185.932 123.349 186.506C123.17 186.985 122.991 187.463 122.811 187.942L92.6831 260.021C92.0555 261.648 91.383 263.084 90.6656 264.328C89.9483 265.477 89.231 266.434 88.5136 267.2C87.7066 268.062 86.8548 268.732 85.9581 269.21C85.0614 269.689 84.1199 270.072 83.1336 270.359C82.6853 270.55 82.1921 270.646 81.6541 270.646C81.2058 270.742 80.7574 270.838 80.3091 270.933C79.8608 271.029 79.4124 271.077 78.9641 271.077C78.5158 271.173 78.0674 271.22 77.6191 271.22C76.0051 271.22 74.5256 270.981 73.1806 270.502C71.8356 270.024 70.5354 269.402 69.2801 268.636C68.1144 267.679 66.9936 266.482 65.9176 265.046C64.9312 263.61 64.0794 261.983 63.3621 260.164L33.234 187.798C33.3236 187.703 33.3236 187.559 33.234 187.368C33.1443 187.081 33.0546 186.793 32.965 186.506C32.8753 186.219 32.8305 185.932 32.8305 185.645C32.7408 185.358 32.6511 185.07 32.5615 184.783C32.5615 184.687 32.5615 184.592 32.5615 184.496C32.5615 184.4 32.5166 184.257 32.427 184.065C32.427 183.97 32.427 183.874 32.427 183.778C32.427 183.587 32.427 183.443 32.427 183.347C32.427 183.156 32.427 183.012 32.427 182.917C32.427 182.821 32.3821 182.677 32.2925 182.486C32.2925 182.39 32.2925 182.294 32.2925 182.199C32.2925 182.007 32.2925 181.864 32.2925 181.768C32.2925 180.236 32.5166 178.753 32.965 177.317C33.3236 175.881 33.8168 174.541 34.4445 173.297C35.1618 171.956 36.0585 170.808 37.1345 169.851C38.2105 168.798 39.4658 167.888 40.9005 167.122V166.979Z" fill="white"/>
<path d="M235.09 168.275C238.646 168.275 241.575 165.378 241.064 161.86C239.526 151.255 234.202 141.337 225.813 133.689C215.751 124.517 202.103 119.363 187.873 119.363C173.643 119.363 159.996 124.517 149.934 133.689C141.545 141.337 136.221 151.255 134.682 161.86C134.172 165.378 137.101 168.275 140.657 168.275V168.275C144.212 168.275 147.033 165.368 147.703 161.876C149.137 154.393 153.066 147.433 159.038 141.989C166.686 135.017 177.058 131.1 187.873 131.1C198.689 131.1 209.061 135.017 216.709 141.989C222.681 147.433 226.61 154.393 228.044 161.876C228.713 165.368 231.535 168.275 235.09 168.275V168.275Z" fill="#8E70D6"/>
<path fill-rule="evenodd" clip-rule="evenodd" d="M137.438 199.463C125.046 182.957 126.263 173.457 135.59 172.844C151.136 171.822 149.035 186.546 137.438 199.463ZM142.49 181.614C142.49 184.07 140.444 186.061 137.921 186.061C135.397 186.061 133.351 184.07 133.351 181.614C133.351 179.158 135.397 177.168 137.921 177.168C140.444 177.168 142.49 179.158 142.49 181.614Z" fill="#8E70D6"/>
<path fill-rule="evenodd" clip-rule="evenodd" d="M237.206 199.585C224.814 183.079 226.031 173.58 235.357 172.967C250.903 171.945 248.802 186.668 237.206 199.585ZM242.259 181.737C242.259 184.193 240.213 186.183 237.689 186.183C235.166 186.183 233.12 184.193 233.12 181.737C233.12 179.281 235.166 177.29 237.689 177.29C240.213 177.29 242.259 179.281 242.259 181.737Z" fill="#8E70D6"/>
<path d="M235.09 169.867C238.646 169.867 241.575 166.97 241.064 163.451C239.526 152.847 234.202 142.928 225.813 135.281C215.751 126.108 202.103 120.955 187.873 120.955C173.643 120.955 159.996 126.108 149.934 135.281C141.545 142.928 136.221 152.847 134.682 163.451C134.172 166.97 137.101 169.867 140.657 169.867V169.867C144.212 169.867 147.033 166.959 147.703 163.467C149.137 155.984 153.066 149.025 159.038 143.58C166.686 136.608 177.058 132.692 187.873 132.692C198.689 132.692 209.061 136.608 216.709 143.58C222.681 149.025 226.61 155.984 228.044 163.467C228.713 166.959 231.535 169.867 235.09 169.867V169.867Z" fill="white"/>
<path fill-rule="evenodd" clip-rule="evenodd" d="M137.438 201.054C125.047 184.548 126.263 175.049 135.59 174.436C151.136 173.414 149.035 188.137 137.438 201.054ZM142.49 183.206C142.49 185.661 140.444 187.652 137.921 187.652C135.397 187.652 133.351 185.661 133.351 183.206C133.351 180.75 135.397 178.759 137.921 178.759C140.444 178.759 142.49 180.75 142.49 183.206Z" fill="white"/>
<path fill-rule="evenodd" clip-rule="evenodd" d="M237.206 201.177C224.815 184.671 226.031 175.171 235.358 174.558C250.903 173.536 248.803 188.26 237.206 201.177ZM242.259 183.328C242.259 185.784 240.213 187.774 237.69 187.774C235.166 187.774 233.12 185.784 233.12 183.328C233.12 180.872 235.166 178.881 237.69 178.881C240.213 178.881 242.259 180.872 242.259 183.328Z" fill="white"/>
<path d="M113.381 334V320.8H117.493C118.352 320.8 119.106 320.949 119.757 321.248C120.413 321.547 120.925 321.987 121.293 322.568C121.661 323.144 121.845 323.853 121.845 324.696C121.845 325.533 121.661 326.256 121.293 326.864C120.925 327.467 120.413 327.933 119.757 328.264C119.106 328.589 118.352 328.752 117.493 328.752H115.477V334H113.381ZM115.477 327.056H116.877C117.666 327.056 118.328 326.867 118.861 326.488C119.394 326.104 119.661 325.525 119.661 324.752C119.661 323.973 119.394 323.4 118.861 323.032C118.328 322.664 117.666 322.48 116.877 322.48H115.477V327.056ZM127.443 334.256C126.558 334.256 125.758 334.072 125.043 333.704C124.334 333.336 123.771 332.824 123.355 332.168C122.939 331.512 122.731 330.757 122.731 329.904C122.731 329.045 122.939 328.291 123.355 327.64C123.771 326.984 124.334 326.472 125.043 326.104C125.758 325.736 126.558 325.552 127.443 325.552C128.328 325.552 129.126 325.736 129.835 326.104C130.544 326.472 131.107 326.984 131.523 327.64C131.939 328.291 132.147 329.045 132.147 329.904C132.147 330.757 131.939 331.512 131.523 332.168C131.107 332.824 130.544 333.336 129.835 333.704C129.126 334.072 128.328 334.256 127.443 334.256ZM127.443 332.544C127.944 332.544 128.392 332.432 128.787 332.208C129.187 331.979 129.502 331.667 129.731 331.272C129.96 330.872 130.075 330.416 130.075 329.904C130.075 329.387 129.96 328.931 129.731 328.536C129.502 328.141 129.187 327.832 128.787 327.608C128.392 327.379 127.944 327.264 127.443 327.264C126.947 327.264 126.499 327.379 126.099 327.608C125.704 327.832 125.39 328.141 125.155 328.536C124.926 328.931 124.811 329.387 124.811 329.904C124.811 330.416 124.926 330.872 125.155 331.272C125.39 331.667 125.704 331.979 126.099 332.208C126.499 332.432 126.947 332.544 127.443 332.544ZM134.528 334V325.808H136.52V327C137.107 326.035 137.942 325.552 139.024 325.552C139.296 325.552 139.574 325.589 139.856 325.664C140.144 325.733 140.39 325.827 140.592 325.944L139.768 327.632C139.592 327.525 139.39 327.44 139.16 327.376C138.931 327.312 138.715 327.28 138.512 327.28C138.171 327.28 137.848 327.368 137.544 327.544C137.24 327.715 136.992 327.941 136.8 328.224C136.614 328.501 136.52 328.8 136.52 329.12V334H134.528ZM144.791 334.256C144.05 334.256 143.471 334.016 143.055 333.536C142.644 333.051 142.439 332.376 142.439 331.512V327.32H141.439V325.808H142.439V322.744H144.431V325.808H146.319V327.32H144.431V331.376C144.431 332.112 144.708 332.48 145.263 332.48C145.54 332.48 145.794 332.395 146.023 332.224L146.527 333.816C146.01 334.109 145.431 334.256 144.791 334.256ZM152.226 334.256C151.469 334.256 150.781 334.069 150.162 333.696C149.549 333.317 149.061 332.8 148.698 332.144C148.341 331.488 148.162 330.739 148.162 329.896C148.162 329.069 148.336 328.328 148.682 327.672C149.034 327.016 149.514 326.499 150.122 326.12C150.736 325.741 151.437 325.552 152.226 325.552C152.861 325.552 153.448 325.685 153.986 325.952C154.53 326.219 154.96 326.589 155.274 327.064V325.808H157.266V334H155.274V332.688C154.912 333.184 154.466 333.571 153.938 333.848C153.416 334.12 152.845 334.256 152.226 334.256ZM152.794 332.552C153.29 332.552 153.728 332.44 154.106 332.216C154.49 331.987 154.789 331.672 155.002 331.272C155.221 330.872 155.33 330.416 155.33 329.904C155.33 329.387 155.221 328.931 155.002 328.536C154.789 328.136 154.49 327.824 154.106 327.6C153.728 327.371 153.29 327.256 152.794 327.256C152.304 327.256 151.866 327.371 151.482 327.6C151.098 327.824 150.797 328.136 150.578 328.536C150.36 328.936 150.25 329.392 150.25 329.904C150.25 330.416 150.36 330.872 150.578 331.272C150.797 331.667 151.098 331.979 151.482 332.208C151.866 332.437 152.304 332.552 152.794 332.552ZM160.357 334V320.24H162.349V334H160.357ZM173.101 334.256C172.349 334.256 171.666 334.069 171.053 333.696C170.44 333.323 169.952 332.811 169.589 332.16C169.232 331.504 169.053 330.752 169.053 329.904C169.053 329.072 169.229 328.328 169.581 327.672C169.938 327.016 170.424 326.499 171.037 326.12C171.656 325.741 172.36 325.552 173.149 325.552C173.778 325.552 174.357 325.685 174.885 325.952C175.413 326.219 175.84 326.589 176.165 327.064V320.232H178.157V334H176.165V332.688C175.808 333.179 175.362 333.563 174.829 333.84C174.301 334.117 173.725 334.256 173.101 334.256ZM173.669 332.552C174.165 332.552 174.605 332.44 174.989 332.216C175.373 331.987 175.674 331.675 175.893 331.28C176.112 330.88 176.221 330.424 176.221 329.912C176.221 329.395 176.112 328.939 175.893 328.544C175.674 328.144 175.373 327.829 174.989 327.6C174.61 327.371 174.176 327.256 173.685 327.256C173.194 327.256 172.757 327.371 172.373 327.6C171.989 327.829 171.688 328.144 171.469 328.544C171.25 328.939 171.141 329.395 171.141 329.912C171.141 330.419 171.248 330.872 171.461 331.272C171.68 331.672 171.978 331.987 172.357 332.216C172.741 332.44 173.178 332.552 173.669 332.552ZM185.271 334.256C184.386 334.256 183.586 334.072 182.871 333.704C182.162 333.336 181.599 332.824 181.183 332.168C180.767 331.512 180.559 330.757 180.559 329.904C180.559 329.045 180.767 328.291 181.183 327.64C181.599 326.984 182.162 326.472 182.871 326.104C183.586 325.736 184.386 325.552 185.271 325.552C186.156 325.552 186.954 325.736 187.663 326.104C188.372 326.472 188.935 326.984 189.351 327.64C189.767 328.291 189.975 329.045 189.975 329.904C189.975 330.757 189.767 331.512 189.351 332.168C188.935 332.824 188.372 333.336 187.663 333.704C186.954 334.072 186.156 334.256 185.271 334.256ZM185.271 332.544C185.772 332.544 186.22 332.432 186.615 332.208C187.015 331.979 187.33 331.667 187.559 331.272C187.788 330.872 187.903 330.416 187.903 329.904C187.903 329.387 187.788 328.931 187.559 328.536C187.33 328.141 187.015 327.832 186.615 327.608C186.22 327.379 185.772 327.264 185.271 327.264C184.775 327.264 184.327 327.379 183.927 327.608C183.532 327.832 183.218 328.141 182.983 328.536C182.754 328.931 182.639 329.387 182.639 329.904C182.639 330.416 182.754 330.872 182.983 331.272C183.218 331.667 183.532 331.979 183.927 332.208C184.327 332.432 184.775 332.544 185.271 332.544ZM200.07 334.256C199.313 334.256 198.625 334.069 198.006 333.696C197.393 333.317 196.905 332.8 196.542 332.144C196.185 331.488 196.006 330.739 196.006 329.896C196.006 329.069 196.179 328.328 196.526 327.672C196.878 327.016 197.358 326.499 197.966 326.12C198.579 325.741 199.281 325.552 200.07 325.552C200.705 325.552 201.291 325.685 201.83 325.952C202.374 326.219 202.803 326.589 203.118 327.064V325.808H205.11V334H203.118V332.688C202.755 333.184 202.31 333.571 201.782 333.848C201.259 334.12 200.689 334.256 200.07 334.256ZM200.638 332.552C201.134 332.552 201.571 332.44 201.95 332.216C202.334 331.987 202.633 331.672 202.846 331.272C203.065 330.872 203.174 330.416 203.174 329.904C203.174 329.387 203.065 328.931 202.846 328.536C202.633 328.136 202.334 327.824 201.95 327.6C201.571 327.371 201.134 327.256 200.638 327.256C200.147 327.256 199.71 327.371 199.326 327.6C198.942 327.824 198.641 328.136 198.422 328.536C198.203 328.936 198.094 329.392 198.094 329.904C198.094 330.416 198.203 330.872 198.422 331.272C198.641 331.667 198.942 331.979 199.326 332.208C199.71 332.437 200.147 332.552 200.638 332.552ZM211.632 334.256C210.88 334.256 210.198 334.069 209.584 333.696C208.971 333.323 208.483 332.811 208.12 332.16C207.763 331.504 207.584 330.752 207.584 329.904C207.584 329.072 207.76 328.328 208.112 327.672C208.47 327.016 208.955 326.499 209.568 326.12C210.187 325.741 210.891 325.552 211.68 325.552C212.31 325.552 212.888 325.685 213.416 325.952C213.944 326.219 214.371 326.589 214.696 327.064V320.232H216.688V334H214.696V332.688C214.339 333.179 213.894 333.563 213.36 333.84C212.832 334.117 212.256 334.256 211.632 334.256ZM212.2 332.552C212.696 332.552 213.136 332.44 213.52 332.216C213.904 331.987 214.206 331.675 214.424 331.28C214.643 330.88 214.752 330.424 214.752 329.912C214.752 329.395 214.643 328.939 214.424 328.544C214.206 328.144 213.904 327.829 213.52 327.6C213.142 327.371 212.707 327.256 212.216 327.256C211.726 327.256 211.288 327.371 210.904 327.6C210.52 327.829 210.219 328.144 210 328.544C209.782 328.939 209.672 329.395 209.672 329.912C209.672 330.419 209.779 330.872 209.992 331.272C210.211 331.672 210.51 331.987 210.888 332.216C211.272 332.44 211.71 332.552 212.2 332.552ZM219.778 334V325.808H221.77V326.792C222.512 325.965 223.37 325.552 224.346 325.552C224.992 325.552 225.565 325.699 226.066 325.992C226.568 326.285 226.925 326.68 227.138 327.176C227.506 326.653 227.925 326.253 228.394 325.976C228.864 325.693 229.408 325.552 230.026 325.552C230.613 325.552 231.136 325.675 231.594 325.92C232.053 326.16 232.413 326.507 232.674 326.96C232.936 327.413 233.066 327.955 233.066 328.584V334H231.074V329.128C231.074 328.52 230.914 328.04 230.594 327.688C230.28 327.331 229.856 327.152 229.322 327.152C228.773 327.152 228.317 327.32 227.954 327.656C227.597 327.992 227.418 328.381 227.418 328.824V334H225.426V329.048C225.426 328.472 225.272 328.013 224.962 327.672C224.653 327.325 224.232 327.152 223.698 327.152C223.336 327.152 223.008 327.229 222.714 327.384C222.421 327.539 222.189 327.744 222.018 328C221.853 328.251 221.77 328.523 221.77 328.816V334H219.778ZM237.005 324.128C236.674 324.128 236.389 324.011 236.149 323.776C235.914 323.536 235.797 323.251 235.797 322.92C235.797 322.584 235.914 322.299 236.149 322.064C236.389 321.829 236.674 321.712 237.005 321.712C237.335 321.712 237.618 321.829 237.853 322.064C238.087 322.299 238.205 322.584 238.205 322.92C238.205 323.251 238.087 323.536 237.853 323.776C237.618 324.011 237.335 324.128 237.005 324.128ZM236.005 334V325.808H237.997V334H236.005ZM241.091 334V325.808H243.083V326.792C243.366 326.429 243.742 326.133 244.211 325.904C244.686 325.669 245.227 325.552 245.835 325.552C246.779 325.552 247.539 325.851 248.115 326.448C248.691 327.04 248.979 327.837 248.979 328.84V334H246.987V329.256C246.987 328.573 246.816 328.048 246.475 327.68C246.139 327.307 245.672 327.12 245.075 327.12C244.456 327.12 243.968 327.301 243.611 327.664C243.259 328.027 243.083 328.464 243.083 328.976V334H241.091ZM252.911 324.128C252.58 324.128 252.295 324.011 252.055 323.776C251.82 323.536 251.703 323.251 251.703 322.92C251.703 322.584 251.82 322.299 252.055 322.064C252.295 321.829 252.58 321.712 252.911 321.712C253.242 321.712 253.524 321.829 253.759 322.064C253.994 322.299 254.111 322.584 254.111 322.92C254.111 323.251 253.994 323.536 253.759 323.776C253.524 324.011 253.242 324.128 252.911 324.128ZM251.911 334V325.808H253.903V334H251.911ZM259.253 334.256C257.84 334.256 256.792 333.755 256.109 332.752L256.989 331.456C257.304 331.877 257.653 332.203 258.037 332.432C258.426 332.656 258.829 332.768 259.245 332.768C259.624 332.768 259.938 332.664 260.189 332.456C260.445 332.248 260.573 331.957 260.573 331.584C260.573 331.328 260.506 331.128 260.373 330.984C260.24 330.84 260.04 330.709 259.773 330.592C259.506 330.475 259.17 330.336 258.765 330.176C258.424 330.032 258.096 329.872 257.781 329.696C257.472 329.52 257.218 329.299 257.021 329.032C256.824 328.76 256.725 328.416 256.725 328C256.725 327.525 256.856 327.104 257.117 326.736C257.384 326.368 257.746 326.08 258.205 325.872C258.669 325.664 259.197 325.56 259.789 325.56C260.216 325.56 260.642 325.637 261.069 325.792C261.501 325.941 261.936 326.16 262.373 326.448L261.653 327.704C261.029 327.187 260.413 326.928 259.805 326.928C259.448 326.928 259.16 327.013 258.941 327.184C258.728 327.355 258.621 327.573 258.621 327.84C258.621 328.059 258.712 328.248 258.893 328.408C259.08 328.563 259.312 328.699 259.589 328.816C259.872 328.928 260.152 329.037 260.429 329.144C260.861 329.304 261.242 329.475 261.573 329.656C261.909 329.837 262.17 330.072 262.357 330.36C262.544 330.648 262.637 331.032 262.637 331.512C262.637 332.381 262.333 333.056 261.725 333.536C261.117 334.016 260.293 334.256 259.253 334.256ZM267.494 334.256C266.753 334.256 266.174 334.016 265.758 333.536C265.348 333.051 265.142 332.376 265.142 331.512V327.32H264.142V325.808H265.142V322.744H267.134V325.808H269.022V327.32H267.134V331.376C267.134 332.112 267.412 332.48 267.966 332.48C268.244 332.48 268.497 332.395 268.726 332.224L269.23 333.816C268.713 334.109 268.134 334.256 267.494 334.256ZM271.513 334V325.808H273.505V327C274.091 326.035 274.926 325.552 276.009 325.552C276.281 325.552 276.558 325.589 276.841 325.664C277.129 325.733 277.374 325.827 277.577 325.944L276.753 327.632C276.577 327.525 276.374 327.44 276.145 327.376C275.915 327.312 275.699 327.28 275.497 327.28C275.155 327.28 274.833 327.368 274.529 327.544C274.225 327.715 273.977 327.941 273.785 328.224C273.598 328.501 273.505 328.8 273.505 329.12V334H271.513ZM282.555 334.256C281.797 334.256 281.109 334.069 280.491 333.696C279.877 333.317 279.389 332.8 279.027 332.144C278.669 331.488 278.491 330.739 278.491 329.896C278.491 329.069 278.664 328.328 279.011 327.672C279.363 327.016 279.843 326.499 280.451 326.12C281.064 325.741 281.765 325.552 282.555 325.552C283.189 325.552 283.776 325.685 284.315 325.952C284.859 326.219 285.288 326.589 285.602 327.064V325.808H287.595V334H285.602V332.688C285.24 333.184 284.795 333.571 284.267 333.848C283.744 334.12 283.173 334.256 282.555 334.256ZM283.123 332.552C283.619 332.552 284.056 332.44 284.435 332.216C284.819 331.987 285.117 331.672 285.331 331.272C285.549 330.872 285.659 330.416 285.659 329.904C285.659 329.387 285.549 328.931 285.331 328.536C285.117 328.136 284.819 327.824 284.435 327.6C284.056 327.371 283.619 327.256 283.123 327.256C282.632 327.256 282.195 327.371 281.811 327.6C281.427 327.824 281.125 328.136 280.907 328.536C280.688 328.936 280.579 329.392 280.579 329.904C280.579 330.416 280.688 330.872 280.907 331.272C281.125 331.667 281.427 331.979 281.811 332.208C282.195 332.437 282.632 332.552 283.123 332.552ZM294.117 334.256C293.365 334.256 292.682 334.069 292.069 333.696C291.455 333.323 290.967 332.811 290.605 332.16C290.247 331.504 290.069 330.752 290.069 329.904C290.069 329.072 290.245 328.328 290.597 327.672C290.954 327.016 291.439 326.499 292.053 326.12C292.671 325.741 293.375 325.552 294.165 325.552C294.794 325.552 295.373 325.685 295.901 325.952C296.429 326.219 296.855 326.589 297.181 327.064V320.232H299.173V334H297.181V332.688C296.823 333.179 296.378 333.563 295.845 333.84C295.317 334.117 294.741 334.256 294.117 334.256ZM294.685 332.552C295.181 332.552 295.621 332.44 296.005 332.216C296.389 331.987 296.69 331.675 296.909 331.28C297.127 330.88 297.237 330.424 297.237 329.912C297.237 329.395 297.127 328.939 296.909 328.544C296.69 328.144 296.389 327.829 296.005 327.6C295.626 327.371 295.191 327.256 294.701 327.256C294.21 327.256 293.773 327.371 293.389 327.6C293.005 327.829 292.703 328.144 292.485 328.544C292.266 328.939 292.157 329.395 292.157 329.912C292.157 330.419 292.263 330.872 292.477 331.272C292.695 331.672 292.994 331.987 293.373 332.216C293.757 332.44 294.194 332.552 294.685 332.552ZM306.287 334.256C305.401 334.256 304.601 334.072 303.887 333.704C303.177 333.336 302.615 332.824 302.199 332.168C301.783 331.512 301.575 330.757 301.575 329.904C301.575 329.045 301.783 328.291 302.199 327.64C302.615 326.984 303.177 326.472 303.887 326.104C304.601 325.736 305.401 325.552 306.287 325.552C307.172 325.552 307.969 325.736 308.679 326.104C309.388 326.472 309.951 326.984 310.367 327.64C310.783 328.291 310.991 329.045 310.991 329.904C310.991 330.757 310.783 331.512 310.367 332.168C309.951 332.824 309.388 333.336 308.679 333.704C307.969 334.072 307.172 334.256 306.287 334.256ZM306.287 332.544C306.788 332.544 307.236 332.432 307.631 332.208C308.031 331.979 308.345 331.667 308.575 331.272C308.804 330.872 308.919 330.416 308.919 329.904C308.919 329.387 308.804 328.931 308.575 328.536C308.345 328.141 308.031 327.832 307.631 327.608C307.236 327.379 306.788 327.264 306.287 327.264C305.791 327.264 305.343 327.379 304.943 327.608C304.548 327.832 304.233 328.141 303.999 328.536C303.769 328.931 303.655 329.387 303.655 329.904C303.655 330.416 303.769 330.872 303.999 331.272C304.233 331.667 304.548 331.979 304.943 332.208C305.343 332.432 305.791 332.544 306.287 332.544ZM313.372 334V325.808H315.364V327C315.951 326.035 316.785 325.552 317.868 325.552C318.14 325.552 318.417 325.589 318.7 325.664C318.988 325.733 319.233 325.827 319.436 325.944L318.612 327.632C318.436 327.525 318.233 327.44 318.004 327.376C317.775 327.312 317.559 327.28 317.356 327.28C317.015 327.28 316.692 327.368 316.388 327.544C316.084 327.715 315.836 327.941 315.644 328.224C315.457 328.501 315.364 328.8 315.364 329.12V334H313.372Z" fill="#F8F8F8"/>
<defs>
<linearGradient id="paint0_linear_944_5513" x1="30.2763" y1="248.276" x2="59.3482" y2="329.443" gradientUnits="userSpaceOnUse">
<stop stop-color="#6849B3"/>
<stop offset="1" stop-color="white" stop-opacity="0"/>
</linearGradient>
</defs>
</svg>
