<svg width="20" height="23" viewBox="0 0 20 23" fill="none" xmlns="http://www.w3.org/2000/svg">
<path d="M0.847458 21V6.86861C0.847458 5.76404 1.74288 4.86861 2.84745 4.86861H17.1525C18.2571 4.86861 19.1525 5.76404 19.1525 6.86861V21C19.1525 22.1046 18.2571 23 17.1525 23H2.84746C1.74289 23 0.847458 22.1046 0.847458 21Z" fill="#EF4848"/>
<path d="M19.0766 2.85401H0.923357C0.413401 2.85401 0 2.44061 0 1.93066C0 1.4207 0.413402 1.0073 0.923358 1.0073H6.61499C6.89315 1.0073 7.11864 0.781808 7.11864 0.50365C7.11864 0.225492 7.34414 0 7.62229 0H12.5472C12.8254 0 13.0508 0.225492 13.0508 0.50365C13.0508 0.781808 13.2763 1.0073 13.5545 1.0073H19.0766C19.5866 1.0073 20 1.4207 20 1.93066C20 2.44061 19.5866 2.85401 19.0766 2.85401Z" fill="#EF4848"/>
</svg>
