<svg width="29" height="26" viewBox="0 0 29 26" fill="none" xmlns="http://www.w3.org/2000/svg">
<path fill-rule="evenodd" clip-rule="evenodd" d="M0 5.77778C0 3.78342 1.62297 2.16667 3.625 2.16667H7.25V3.97222C7.25 4.9694 8.06148 5.77778 9.0625 5.77778C10.0635 5.77778 10.875 4.9694 10.875 3.97222V2.16667H18.125V3.97222C18.125 4.9694 18.9365 5.77778 19.9375 5.77778C20.9385 5.77778 21.75 4.9694 21.75 3.97222V2.16667H25.375C27.377 2.16667 29 3.78342 29 5.77778V9.38889H0V5.77778Z" fill="white"/>
<path fill-rule="evenodd" clip-rule="evenodd" d="M3.625 26C1.62297 26 0 24.3832 0 22.3889V10.1111H29V22.3889C29 24.3832 27.377 26 25.375 26H3.625ZM15.9758 15.9617L15.2314 14.4788C14.8297 13.6741 14.1699 13.6741 13.7639 14.4788L13.0196 15.9617C12.9181 16.1682 12.6474 16.3662 12.4233 16.4041L11.0742 16.6274C10.2114 16.7706 10.0126 17.3941 10.6301 18.0092L11.6789 19.0541C11.8566 19.231 11.9538 19.5723 11.8988 19.8166L11.5986 21.11C11.3617 22.1295 11.9115 22.5298 12.8166 21.9947L14.0811 21.249C14.3137 21.1142 14.6901 21.1142 14.9185 21.249L16.183 21.9947C17.0923 22.5298 17.6378 22.1337 17.401 21.11L17.1007 19.8166C17.0457 19.5723 17.143 19.231 17.3206 19.0541L18.3695 18.0092C18.9912 17.3941 18.7882 16.7706 17.9254 16.6274L16.5763 16.4041C16.3479 16.3662 16.0773 16.1682 15.9758 15.9617Z" fill="white"/>
<path d="M7.975 1.08333C7.975 0.485025 8.46189 0 9.0625 0C9.66311 0 10.15 0.485025 10.15 1.08333V3.97222C10.15 4.57053 9.66311 5.05556 9.0625 5.05556C8.46189 5.05556 7.975 4.57053 7.975 3.97222V1.08333Z" fill="white"/>
<path d="M18.85 1.08333C18.85 0.485025 19.3369 0 19.9375 0C20.5381 0 21.025 0.485025 21.025 1.08333V3.97222C21.025 4.57053 20.5381 5.05556 19.9375 5.05556C19.3369 5.05556 18.85 4.57053 18.85 3.97222V1.08333Z" fill="white"/>
</svg>
