<svg width="30" height="29" viewBox="0 0 30 29" fill="none" xmlns="http://www.w3.org/2000/svg">
<path d="M20.6079 1.93766L15.5874 7.25072C15.5874 7.25072 10.8377 5.1676 6.66996 3.83312C2.50217 2.49864 2.66077 5.49066 4.24202 6.90528C5.82328 8.3199 10.4848 12.1481 10.4848 12.1481L6.63415 16.7977C2.16179 16.992 1.70594 18.9251 2.03706 19.8674L10.1079 27.7717C12.5158 25.9129 12.9572 23.1764 12.8769 22.0406L16.1396 18.8031L22.6291 25.2929C25.1639 25.8277 25.4685 24.2989 25.3039 23.4676L21.6596 13.8231L28.185 7.34826C29.0598 4.75634 27.7816 2.38911 27.0331 1.52949C24.0327 0.395803 21.4995 1.32923 20.6079 1.93766Z" stroke="white" stroke-width="2" stroke-linejoin="round"/>
</svg>
