<svg width="29" height="39" viewBox="0 0 29 39" fill="none" xmlns="http://www.w3.org/2000/svg">
<path d="M28 34.1791L28.7489 34.2189L28.75 34.199V34.1791H28ZM23.9675 38V38.75H24.018L24.0679 38.7433L23.9675 38ZM4.85714 38L4.71139 38.7357L4.78356 38.75H4.85714V38ZM1 34.1791H0.25V34.221L0.254674 34.2627L1 34.1791ZM3.9332 19.5448C3.90806 19.9582 4.22284 20.3137 4.63629 20.3389C5.04974 20.364 5.40529 20.0492 5.43044 19.6358L3.9332 19.5448ZM23.569 19.5554C23.5497 19.9691 23.8695 20.3202 24.2833 20.3395C24.697 20.3587 25.0481 20.0389 25.0674 19.6252L23.569 19.5554ZM8.36364 6.38961L8.63897 7.08724L8.36364 6.38961ZM20.65 6.38961L20.3757 7.08764L20.65 6.38961ZM4.85714 25.9542C4.44293 25.9542 4.10714 26.2899 4.10714 26.7042C4.10714 27.1184 4.44293 27.4542 4.85714 27.4542V25.9542ZM24.1429 27.4542C24.5571 27.4542 24.8929 27.1184 24.8929 26.7042C24.8929 26.2899 24.5571 25.9542 24.1429 25.9542V27.4542ZM8.02966 28.7883C8.02966 29.2025 8.36545 29.5383 8.77966 29.5383C9.19388 29.5383 9.52966 29.2025 9.52966 28.7883H8.02966ZM27.25 16.6378V34.1791H28.75V16.6378H27.25ZM27.2511 34.1393C27.2069 34.9712 26.5119 36.8995 23.8671 37.2568L24.0679 38.7433C27.5946 38.2669 28.6763 35.587 28.7489 34.2189L27.2511 34.1393ZM23.9675 37.25H4.85714V38.75H23.9675V37.25ZM5.0029 37.2643C4.51802 37.1682 3.73638 36.8818 3.05805 36.3502C2.39204 35.8283 1.85791 35.0992 1.74533 34.0955L0.254674 34.2627C0.42261 35.7599 1.23263 36.8255 2.13286 37.5309C3.02076 38.2267 4.02743 38.6002 4.71139 38.7357L5.0029 37.2643ZM1.75 34.1791V16.8115H0.25V34.1791H1.75ZM5.43044 19.6358C5.63875 16.2103 6.92929 13.9107 8.66585 12.5041C10.415 11.0873 12.6917 10.5161 14.9659 10.6987C19.5593 11.0677 23.8076 14.4345 23.569 19.5554L25.0674 19.6252C25.3548 13.457 20.2232 9.61617 15.086 9.20356C12.495 8.99545 9.81874 9.63997 7.72173 11.3385C5.61211 13.0473 4.1632 15.7626 3.9332 19.5448L5.43044 19.6358ZM1.75 16.8115C1.75 11.8726 4.68413 8.64809 8.63897 7.08724L8.0883 5.69198C3.68228 7.43089 0.25 11.1356 0.25 16.8115H1.75ZM8.63897 7.08724C12.28 5.65025 16.7344 5.65664 20.3757 7.08764L20.9243 5.69158C16.9321 4.12262 12.0848 4.11471 8.0883 5.69198L8.63897 7.08724ZM20.3757 7.08764C24.3304 8.64183 27.25 11.8307 27.25 16.6378H28.75C28.75 11.0799 25.3171 7.41793 20.9243 5.69158L20.3757 7.08764ZM9.11364 6.38961C9.11364 4.04677 11.3864 2.11602 14.0651 1.79457C15.3654 1.63853 16.6643 1.88696 17.7048 2.60996C18.7333 3.32463 19.5843 4.55483 19.9102 6.51275L21.3898 6.26648C21.0076 3.96988 19.9688 2.35656 18.5608 1.37816C17.1648 0.408103 15.4807 0.113937 13.8864 0.305254C10.776 0.67851 7.61364 3.00227 7.61364 6.38961H9.11364ZM6.78572 23.4664H22.2143V21.9664H6.78572V23.4664ZM24.2695 25.4952V31.7476H25.7695V25.4952H24.2695ZM22.2143 33.7764H6.78572V35.2764H22.2143V33.7764ZM4.73052 31.7476V25.4952H3.23052V31.7476H4.73052ZM6.78572 33.7764C5.64397 33.7764 4.73052 32.8614 4.73052 31.7476H3.23052C3.23052 33.7031 4.82893 35.2764 6.78572 35.2764V33.7764ZM24.2695 31.7476C24.2695 32.8614 23.356 33.7764 22.2143 33.7764V35.2764C24.1711 35.2764 25.7695 33.7031 25.7695 31.7476H24.2695ZM22.2143 23.4664C23.356 23.4664 24.2695 24.3814 24.2695 25.4952H25.7695C25.7695 23.5396 24.1711 21.9664 22.2143 21.9664V23.4664ZM6.78572 21.9664C4.82893 21.9664 3.23052 23.5396 3.23052 25.4952H4.73052C4.73052 24.3814 5.64397 23.4664 6.78572 23.4664V21.9664ZM4.85714 27.4542H8.77966V25.9542H4.85714V27.4542ZM8.77966 27.4542H24.1429V25.9542H8.77966V27.4542ZM8.02966 26.7042V28.7883H9.52966V26.7042H8.02966Z" fill="white"/>
</svg>
