<svg width="362" height="342" viewBox="0 0 362 342" fill="none" xmlns="http://www.w3.org/2000/svg">
<path d="M182.517 301.216C135.997 258.714 65.3558 255.454 2 301.216V42C2 19.9086 19.9086 2 42 2H320C342.091 2 360 19.9086 360 42V301.216C290.684 353.869 229.037 343.718 182.517 301.216Z" fill="#6EC9BF" stroke="#6EC9BF" stroke-width="3"/>
<path d="M186 302.619C254.165 256.818 291.816 256.104 358 302.619C289.321 352.822 251.707 352.098 186 302.619Z" fill="#56A79E" stroke="#56A79E" stroke-width="3"/>
<path d="M58.9635 58H35.0417H27.3482C18.9333 57.403 18.212 44.1484 29.2716 44.1484C24.8238 34.3569 39.8501 24.8041 47.6638 36.148C56.4621 30.1641 62.1119 40.911 59.805 44.1484C68.4601 48.2084 64.974 58 58.9635 58Z" fill="#56A79E"/>
<path d="M84.9635 55H61.0417H53.3482C44.9333 54.403 44.212 41.1484 55.2716 41.1484C50.8238 31.3569 65.8501 21.8041 73.6638 33.148C82.4621 27.1641 88.1119 37.911 85.805 41.1484C94.4601 45.2084 90.974 55 84.9635 55Z" fill="#56A79E"/>
<path d="M302.964 225H279.042H271.348C262.933 224.403 262.212 211.148 273.272 211.148C268.824 201.357 283.85 191.804 291.664 203.148C300.462 197.164 306.112 207.911 303.805 211.148C312.46 215.208 308.974 225 302.964 225Z" fill="#56A79E"/>
<path d="M330.964 218H307.042H299.348C290.933 217.403 290.212 204.148 301.272 204.148C296.824 194.357 311.85 184.804 319.664 196.148C328.462 190.164 334.112 200.911 331.805 204.148C340.46 208.208 336.974 218 330.964 218Z" fill="#56A79E"/>
<path d="M113.895 207.27L103.543 236H98.2695L88.0938 207.27H93.7188L100.945 227.68L108.27 207.27H113.895ZM123.211 209.477C123.211 210.427 122.879 211.241 122.215 211.918C121.564 212.582 120.77 212.914 119.832 212.914C118.868 212.914 118.055 212.576 117.391 211.898C116.727 211.208 116.395 210.375 116.395 209.398C116.395 208.461 116.727 207.66 117.391 206.996C118.055 206.332 118.855 206 119.793 206C120.743 206 121.551 206.339 122.215 207.016C122.879 207.693 123.211 208.513 123.211 209.477ZM122.469 236H117.117V214.75H122.469V236ZM148.328 236H143.016V233.754C141.049 235.616 138.868 236.547 136.473 236.547C133.53 236.547 131.082 235.414 129.129 233.148C127.267 230.974 126.336 228.396 126.336 225.414C126.336 222.354 127.221 219.757 128.992 217.621C130.88 215.342 133.322 214.203 136.316 214.203C138.882 214.203 141.115 215.167 143.016 217.094V214.75H148.328V236ZM143.27 225.336C143.27 223.552 142.736 222.074 141.668 220.902C140.6 219.717 139.181 219.125 137.41 219.125C135.678 219.125 134.272 219.737 133.191 220.961C132.163 222.133 131.648 223.598 131.648 225.355C131.648 227.1 132.169 228.572 133.211 229.77C134.305 231.033 135.711 231.664 137.43 231.664C139.201 231.664 140.633 231.046 141.727 229.809C142.755 228.624 143.27 227.133 143.27 225.336ZM159.656 209.477C159.656 210.427 159.324 211.241 158.66 211.918C158.009 212.595 157.215 212.934 156.277 212.934C155.314 212.934 154.5 212.589 153.836 211.898C153.172 211.208 152.84 210.375 152.84 209.398C152.84 208.448 153.165 207.647 153.816 206.996C154.48 206.332 155.281 206 156.219 206C157.182 206 157.996 206.339 158.66 207.016C159.324 207.693 159.656 208.513 159.656 209.477ZM158.895 236.703C158.895 240.219 158.068 242.491 156.414 243.52C155.555 244.053 154.52 244.32 153.309 244.32C152.241 244.32 150.913 244.053 149.324 243.52V239.32C150.158 239.724 150.893 239.926 151.531 239.926C152.885 239.926 153.562 238.982 153.562 237.094V214.75H158.895V236.703ZM185.125 236H179.812V233.754C177.846 235.616 175.665 236.547 173.27 236.547C170.327 236.547 167.879 235.414 165.926 233.148C164.064 230.974 163.133 228.396 163.133 225.414C163.133 222.354 164.018 219.757 165.789 217.621C167.677 215.342 170.118 214.203 173.113 214.203C175.678 214.203 177.911 215.167 179.812 217.094V214.75H185.125V236ZM180.066 225.336C180.066 223.552 179.533 222.074 178.465 220.902C177.397 219.717 175.978 219.125 174.207 219.125C172.475 219.125 171.069 219.737 169.988 220.961C168.96 222.133 168.445 223.598 168.445 225.355C168.445 227.1 168.966 228.572 170.008 229.77C171.102 231.033 172.508 231.664 174.227 231.664C175.997 231.664 177.43 231.046 178.523 229.809C179.552 228.624 180.066 227.133 180.066 225.336ZM209.363 236H204.09V226.684C204.09 224.743 204.057 223.513 203.992 222.992C203.797 221.404 203.322 220.31 202.566 219.711C201.993 219.281 201.29 219.066 200.457 219.066C198.165 219.066 196.701 220.427 196.062 223.148C195.906 223.812 195.828 225.251 195.828 227.465V236H190.516V214.75H195.828V216.918C197.99 215.108 200.092 214.203 202.137 214.203C204.259 214.203 206.049 214.939 207.508 216.41C208.745 217.647 209.363 219.496 209.363 221.957V236ZM223.66 219.34H220.496V236H215.184V219.34H212.449V214.75H215.184V206.918H220.496V214.75H223.66V219.34ZM247.84 225.902L247.82 226.918H230.691C230.952 228.48 231.629 229.698 232.723 230.57C233.816 231.43 235.171 231.859 236.785 231.859C238.777 231.859 240.49 231.163 241.922 229.77L246.414 231.879C244.227 234.991 241.03 236.547 236.824 236.547C233.556 236.547 230.854 235.518 228.719 233.461C226.596 231.404 225.535 228.747 225.535 225.492C225.535 222.276 226.564 219.594 228.621 217.445C230.691 215.284 233.328 214.203 236.531 214.203C239.878 214.203 242.599 215.271 244.695 217.406C246.857 219.62 247.905 222.452 247.84 225.902ZM242.469 222.719C242.104 221.482 241.395 220.505 240.34 219.789C239.285 219.073 238.1 218.715 236.785 218.715C235.301 218.715 233.999 219.132 232.879 219.965C232.176 220.486 231.525 221.404 230.926 222.719H242.469Z" fill="white"/>
<path d="M154.248 147.353L124.681 124.072C123.619 123.237 123 121.96 123 120.61C123 118.676 124.261 116.968 126.109 116.398L224.439 86.0973C225.963 85.6276 227.397 87.0441 226.946 88.5742L197.698 187.79C197.137 189.694 195.39 191 193.406 191C192.02 191 190.712 190.358 189.864 189.261L166.344 158.812L212.783 100.188C213.155 99.7175 212.534 99.1096 212.072 99.4923L154.248 147.353Z" fill="white" stroke="white" stroke-width="3"/>
</svg>
