<svg width="362" height="342" viewBox="0 0 362 342" fill="none" xmlns="http://www.w3.org/2000/svg">
<path d="M182.517 301.216C135.997 258.714 65.3558 255.454 2 301.216V42C2 19.9086 19.9086 2 42 2H320C342.091 2 360 19.9086 360 42V301.216C290.684 353.869 229.037 343.718 182.517 301.216Z" fill="#8E70D6" stroke="#8E70D6" stroke-width="3"/>
<path d="M186 302.619C254.165 256.818 291.816 256.104 358 302.619C289.321 352.822 251.707 352.098 186 302.619Z" fill="#6A52A3" stroke="#6A52A3" stroke-width="3"/>
<path d="M330.964 54H307.042H299.348C290.933 53.403 290.212 40.1484 301.272 40.1484C296.824 30.3569 311.85 20.8041 319.664 32.148C328.462 26.1641 334.112 36.911 331.805 40.1484C340.46 44.2084 336.974 54 330.964 54Z" fill="#6A52A3"/>
<path d="M301.964 58H278.042H270.348C261.933 57.403 261.212 44.1484 272.272 44.1484C267.824 34.3569 282.85 24.8041 290.664 36.148C299.462 30.1641 305.112 40.911 302.805 44.1484C311.46 48.2084 307.974 58 301.964 58Z" fill="#6A52A3"/>
<path d="M50.9635 131H27.0417H19.3482C10.9333 130.403 10.212 117.148 21.2716 117.148C16.8238 107.357 31.8501 97.8041 39.6638 109.148C48.4621 103.164 54.1119 113.911 51.805 117.148C60.4601 121.208 56.974 131 50.9635 131Z" fill="#6A52A3"/>
<path d="M72.9635 125H49.0417H41.3482C32.9333 124.403 32.212 111.148 43.2716 111.148C38.8238 101.357 53.8501 91.8041 61.6638 103.148C70.4621 97.1641 76.1119 107.911 73.805 111.148C82.4601 115.208 78.974 125 72.9635 125Z" fill="#6A52A3"/>
<path d="M128.328 221.66H123.094V245H117.547V221.66H112.449V216.27H128.328V221.66ZM152.801 234.902L152.781 235.918H135.652C135.913 237.48 136.59 238.698 137.684 239.57C138.777 240.43 140.132 240.859 141.746 240.859C143.738 240.859 145.451 240.163 146.883 238.77L151.375 240.879C149.188 243.991 145.991 245.547 141.785 245.547C138.517 245.547 135.815 244.518 133.68 242.461C131.557 240.404 130.496 237.747 130.496 234.492C130.496 231.276 131.525 228.594 133.582 226.445C135.652 224.284 138.289 223.203 141.492 223.203C144.839 223.203 147.56 224.271 149.656 226.406C151.818 228.62 152.866 231.452 152.801 234.902ZM147.43 231.719C147.065 230.482 146.355 229.505 145.301 228.789C144.246 228.073 143.061 227.715 141.746 227.715C140.262 227.715 138.96 228.132 137.84 228.965C137.137 229.486 136.486 230.404 135.887 231.719H147.43ZM178.133 245H172.82V242.754C170.854 244.616 168.673 245.547 166.277 245.547C163.335 245.547 160.887 244.414 158.934 242.148C157.072 239.974 156.141 237.396 156.141 234.414C156.141 231.354 157.026 228.757 158.797 226.621C160.685 224.342 163.126 223.203 166.121 223.203C168.686 223.203 170.919 224.167 172.82 226.094V223.75H178.133V245ZM173.074 234.336C173.074 232.552 172.54 231.074 171.473 229.902C170.405 228.717 168.986 228.125 167.215 228.125C165.483 228.125 164.077 228.737 162.996 229.961C161.967 231.133 161.453 232.598 161.453 234.355C161.453 236.1 161.974 237.572 163.016 238.77C164.109 240.033 165.516 240.664 167.234 240.664C169.005 240.664 170.438 240.046 171.531 238.809C172.56 237.624 173.074 236.133 173.074 234.336ZM216.043 245H210.672V234.219C210.672 232.37 210.509 231.009 210.184 230.137C209.637 228.743 208.602 228.047 207.078 228.047C205.125 228.047 203.771 229.023 203.016 230.977C202.664 231.901 202.488 233.379 202.488 235.41V245H197.117V234.707C197.117 231.517 196.557 229.505 195.438 228.672C194.878 228.255 194.201 228.047 193.406 228.047C191.479 228.047 190.138 229.049 189.383 231.055C189.018 232.005 188.836 233.503 188.836 235.547V245H183.484V223.75H188.836V226.191C190.646 224.199 192.872 223.203 195.516 223.203C198.302 223.203 200.359 224.479 201.688 227.031C203.419 224.479 205.802 223.203 208.836 223.203C210.242 223.203 211.512 223.522 212.645 224.16C213.868 224.837 214.754 225.788 215.301 227.012C215.796 228.145 216.043 229.987 216.043 232.539V245ZM254.07 234.004H245.926V242.09H241.336V234.004H233.211V229.395H241.336V221.27H245.926V229.395H254.07V234.004Z" fill="white"/>
<path fill-rule="evenodd" clip-rule="evenodd" d="M241.381 92.0081C242.96 92.3849 243.834 93.2019 244 94.457C243.625 107.183 241.61 118.444 237.951 128.239C235.582 134.561 232.548 140.296 228.848 145.445C225.606 149.84 221.823 153.86 217.5 157.501H217.374C212.221 161.604 206.921 164.931 201.475 167.485L200.353 167.108L201.413 167.485L193.369 170.813L193.12 170.876L168.053 143.373V143.435L164.188 139.166L164.436 138.538H164.374L166.618 133.576H166.556C169.883 127.047 173.747 121.248 178.153 116.183V116.058C182.103 111.663 186.488 107.895 191.311 104.755L191.871 104.315C197.234 100.84 203.2 98.0984 209.767 96.0897C219.203 93.2425 229.741 91.8832 241.379 92.0079L241.381 92.0081ZM169.487 92.3849H173.29V98.79H169.487V92.3849ZM168.926 99.0403V102.934H163.065V99.0403H168.926ZM169.487 103.436H173.29V109.528H169.487V103.436ZM164.124 130.061L153.149 133.389L154.272 137.031L161.816 134.708L160.196 138.852C159.406 140.694 158.637 142.766 157.888 145.069L143.673 142.494C142.259 141.699 141.843 140.443 142.425 138.727C147.04 127.634 156.726 120.747 171.482 118.067C168.656 121.836 166.203 125.834 164.124 130.061L164.124 130.061ZM179.962 99.0411V102.935H173.976V99.0411H179.962ZM203.469 132.135L200.912 129.309L194.553 135.023L197.109 137.911L203.469 132.135ZM188.13 112.731L186.634 113.924C182.684 117.315 179.131 121.145 175.971 125.414L174.849 126.922L177.905 129.183L179.088 127.676C181.958 123.741 185.303 120.162 189.128 116.938L190.624 115.682L189.658 114.552C189.504 114.362 189.348 114.174 189.19 113.987C188.834 113.568 188.482 113.149 188.13 112.731ZM199.915 107.77C211.139 115.682 219.744 124.996 225.729 135.714C228.389 132.281 230.282 128.326 231.403 123.846C229.616 114.092 222.902 106.997 211.264 102.559C207.148 103.187 203.365 104.925 199.915 107.771L199.915 107.77ZM183.391 173.704L183.578 173.766L180.959 174.457L159.759 151.726L160.508 149.466V149.59L161.07 147.771C161.526 146.18 162.026 144.632 162.566 143.124L165.621 146.452L165.372 146.138L189.004 172.198L183.391 173.704ZM187.818 176.529C190.188 175.859 191.934 175.336 193.056 174.96L198.293 173.076L195.549 180.862L199.166 182.119L203.094 170.941C207.293 169.016 211.325 166.713 215.191 164.033C211.907 178.769 204.675 188.252 193.493 192.478C192.535 192.729 191.788 192.729 191.247 192.478C190.707 192.227 190.249 191.704 189.876 190.908L187.818 176.529ZM175.847 178.476L161.879 192.417L159.199 189.653L173.165 175.713L175.847 178.476ZM158.95 160.831L144.982 174.897L142.363 172.196L156.267 158.132L158.95 160.831ZM167.617 169.936L140.743 197L138 194.301L164.936 167.175L167.617 169.936Z" fill="white"/>
</svg>
