<svg width="119" height="63" viewBox="0 0 119 63" fill="none" xmlns="http://www.w3.org/2000/svg">
<path d="M106.54 53.2997C105.139 53.1114 103.919 52.7752 102.88 52.2911C101.841 51.807 100.996 51.1481 100.343 50.3144C99.667 49.5075 99.1597 48.5124 98.8215 47.329C98.5075 46.1456 98.3504 44.774 98.3504 43.2141V35.3876C98.3504 34.7959 98.4471 34.2446 98.6403 33.7336C98.8577 33.1957 99.1597 32.7116 99.5462 32.2813C99.9569 31.824 100.392 31.4878 100.851 31.2727C101.334 31.0575 101.853 30.95 102.409 30.95C102.965 30.95 103.472 31.0575 103.931 31.2727C104.414 31.4878 104.849 31.824 105.235 32.2813C105.646 32.7116 105.948 33.2091 106.141 33.7739C106.334 34.3118 106.431 34.8901 106.431 35.5087V43.1334C106.431 43.3485 106.443 43.5503 106.467 43.7385C106.492 43.8999 106.516 44.0478 106.54 44.1823C106.588 44.2899 106.636 44.4109 106.685 44.5454C106.733 44.653 106.806 44.7605 106.902 44.8681C106.975 44.9757 107.047 45.0698 107.12 45.1505C107.192 45.2312 107.277 45.2984 107.373 45.3522C107.47 45.406 107.567 45.4598 107.663 45.5136C107.784 45.5405 107.905 45.5674 108.026 45.5943C108.026 45.5943 108.038 45.5943 108.062 45.5943C108.062 45.6212 108.062 45.6346 108.062 45.6346C108.086 45.6346 108.098 45.6346 108.098 45.6346C108.122 45.6346 108.134 45.6346 108.134 45.6346C108.158 45.6346 108.183 45.6346 108.207 45.6346C108.231 45.6346 108.255 45.6346 108.279 45.6346C108.303 45.6346 108.315 45.6346 108.315 45.6346C108.34 45.6346 108.364 45.6346 108.388 45.6346C108.46 45.6346 108.533 45.6346 108.605 45.6346C108.678 45.6346 108.75 45.6212 108.823 45.5943C108.871 45.5674 108.931 45.5405 109.004 45.5136C109.076 45.4867 109.149 45.4598 109.221 45.4329C109.342 45.3791 109.451 45.2984 109.547 45.1909C109.668 45.0833 109.777 44.9757 109.874 44.8681C109.97 44.7605 110.043 44.653 110.091 44.5454C110.163 44.4109 110.212 44.2899 110.236 44.1823C110.284 44.0478 110.308 43.8999 110.308 43.7385C110.333 43.5503 110.345 43.362 110.345 43.1737V35.4683C110.345 34.8766 110.441 34.3118 110.635 33.7739C110.852 33.2091 111.154 32.7116 111.54 32.2813C111.951 31.824 112.386 31.4878 112.845 31.2727C113.328 31.0575 113.847 30.95 114.403 30.95C114.959 30.95 115.478 31.0575 115.961 31.2727C116.444 31.4878 116.879 31.824 117.266 32.2813C117.676 32.7116 117.978 33.1957 118.172 33.7336C118.365 34.2446 118.462 34.8094 118.462 35.428V43.1737C118.462 44.7605 118.292 46.1456 117.954 47.329C117.616 48.5124 117.121 49.5075 116.469 50.3144C115.792 51.1481 114.935 51.807 113.896 52.2911C112.881 52.7752 111.673 53.098 110.272 53.2594C110.248 53.2594 110.212 53.2594 110.163 53.2594C110.115 53.2594 110.079 53.2728 110.055 53.2997C110.006 53.2997 109.958 53.2997 109.91 53.2997C109.886 53.2997 109.849 53.2997 109.801 53.2997C109.777 53.2997 109.741 53.2997 109.692 53.2997C109.644 53.2997 109.608 53.3131 109.584 53.34C109.535 53.34 109.487 53.34 109.439 53.34C109.415 53.34 109.378 53.34 109.33 53.34C109.282 53.34 109.233 53.34 109.185 53.34C109.137 53.34 109.101 53.3535 109.076 53.3804C109.028 53.3804 108.98 53.3804 108.931 53.3804C108.907 53.3804 108.871 53.3804 108.823 53.3804C108.75 53.3804 108.678 53.3804 108.605 53.3804C108.533 53.3804 108.46 53.3804 108.388 53.3804C108.315 53.3804 108.231 53.3804 108.134 53.3804C108.062 53.3804 107.989 53.3804 107.917 53.3804C107.82 53.3535 107.736 53.34 107.663 53.34C107.591 53.34 107.518 53.34 107.446 53.34C107.373 53.34 107.301 53.34 107.228 53.34C107.156 53.34 107.083 53.3266 107.011 53.2997C106.914 53.2997 106.83 53.2862 106.757 53.2594C106.685 53.2594 106.612 53.2594 106.54 53.2594V53.2997Z" fill="white"/>
<path d="M85.8547 53.4209C84.3328 53.394 82.9316 53.1116 81.6513 52.5737C80.3951 52.0358 79.2597 51.229 78.2451 50.1532C77.2063 49.0505 76.4212 47.8536 75.8897 46.5627C75.3824 45.2448 75.1287 43.8059 75.1287 42.246C75.1046 40.6861 75.3462 39.2472 75.8535 37.9294C76.3608 36.5846 77.1338 35.3475 78.1726 34.2179C79.1872 33.0883 80.3347 32.2411 81.6151 31.6763C82.8954 31.1115 84.3086 30.8291 85.8547 30.8291C86.5553 30.8291 87.2317 30.8963 87.8839 31.0308C88.5362 31.1384 89.1643 31.3132 89.7682 31.5553C90.3963 31.7973 90.9761 32.1066 91.5076 32.4831C92.0632 32.8328 92.5826 33.2362 93.0657 33.6934C93.6214 34.2313 94.1166 34.8096 94.5514 35.4281C94.9863 36.0467 95.3486 36.7057 95.6385 37.4049C95.9284 38.1042 96.1458 38.8169 96.2908 39.5431C96.4599 40.2692 96.5565 40.9954 96.5807 41.7216C96.5807 41.7485 96.5807 41.7754 96.5807 41.8023C96.5807 41.8292 96.5807 41.8561 96.5807 41.883C96.5807 41.883 96.5807 41.8964 96.5807 41.9233C96.5807 41.9502 96.5807 41.9771 96.5807 42.004C96.5807 42.0309 96.5807 42.0578 96.5807 42.0847C96.5807 42.0847 96.5807 42.0981 96.5807 42.125C96.5807 43.0932 96.4599 44.0345 96.2183 44.949C96.0009 45.8634 95.6747 46.7644 95.2399 47.6519C94.8051 48.5395 94.2615 49.3329 93.6093 50.0321C92.957 50.7314 92.2081 51.35 91.3626 51.8879C90.9761 52.1568 90.5654 52.3854 90.1306 52.5737C89.6957 52.762 89.2368 52.8965 88.7536 52.9771C88.2946 53.1116 87.8235 53.2057 87.3404 53.2595C86.8572 53.3402 86.362 53.3806 85.8547 53.3806V53.4209ZM83.0283 42.1653C83.0041 42.757 83.0645 43.2815 83.2094 43.7387C83.3544 44.1959 83.5718 44.5993 83.8617 44.949C84.1516 45.2986 84.4536 45.5541 84.7676 45.7155C85.1058 45.8769 85.4682 45.9575 85.8547 45.9575C85.8789 45.9575 85.903 45.9575 85.9272 45.9575C85.9513 45.9575 85.9755 45.9575 85.9996 45.9575C85.9996 45.9575 86.0117 45.9575 86.0359 45.9575C86.06 45.9575 86.0842 45.9575 86.1084 45.9575C86.1567 45.9575 86.205 45.9575 86.2533 45.9575C86.3016 45.9306 86.3499 45.9038 86.3982 45.8769C86.7123 45.8231 86.9901 45.7289 87.2317 45.5945C87.4974 45.4331 87.7148 45.2314 87.8839 44.9893C88.0772 44.7473 88.2342 44.4649 88.355 44.1421C88.4758 43.8194 88.5603 43.4429 88.6087 43.0125C88.6087 42.9856 88.6087 42.9587 88.6087 42.9319C88.6087 42.905 88.6207 42.8646 88.6449 42.8108C88.6449 42.7839 88.6449 42.757 88.6449 42.7301C88.6449 42.6764 88.6449 42.636 88.6449 42.6091C88.6449 42.5553 88.6449 42.515 88.6449 42.4881C88.6449 42.4612 88.657 42.4208 88.6811 42.3671C88.6811 42.3402 88.6811 42.3133 88.6811 42.2864C88.6811 42.2326 88.6811 42.1922 88.6811 42.1653C88.6811 41.9771 88.6691 41.8023 88.6449 41.6409C88.6207 41.4526 88.5845 41.2778 88.5362 41.1164C88.512 40.9551 88.4637 40.7937 88.3912 40.6323C88.3429 40.471 88.2825 40.323 88.2101 40.1886C88.0651 39.9196 87.896 39.691 87.7028 39.5027C87.5337 39.2876 87.3525 39.1262 87.1592 39.0186C86.9659 38.8842 86.7606 38.79 86.5432 38.7362C86.3258 38.6555 86.0963 38.6152 85.8547 38.6152C85.6131 38.6152 85.3715 38.6555 85.13 38.7362C84.9126 38.79 84.7072 38.8842 84.514 39.0186C84.3207 39.1262 84.1395 39.2876 83.9704 39.5027C83.8013 39.691 83.6443 39.9196 83.4993 40.1886C83.4269 40.323 83.3544 40.471 83.2819 40.6323C83.2336 40.7937 83.1853 40.9551 83.137 41.1164C83.1128 41.2778 83.0887 41.4526 83.0645 41.6409C83.0403 41.8023 83.0283 41.9905 83.0283 42.2057V42.1653Z" fill="white"/>
<path d="M69.2165 62.9012C68.6851 62.8743 68.1778 62.7398 67.6946 62.4977C67.2356 62.2826 66.8129 61.9598 66.4263 61.5295C66.0398 61.0992 65.7499 60.6285 65.5567 60.1175C65.3634 59.6065 65.2668 59.0417 65.2668 58.4231V35.4683C65.2668 35.1993 65.2909 34.9169 65.3393 34.6211C65.3876 34.3252 65.46 34.0428 65.5567 33.7739C65.6775 33.5049 65.8103 33.2494 65.9553 33.0074C66.1002 32.7653 66.2572 32.5367 66.4263 32.3215C66.6196 32.1064 66.8249 31.9181 67.0424 31.7567C67.2839 31.5685 67.5255 31.4206 67.7671 31.313C68.0087 31.2054 68.2502 31.1247 68.4918 31.0709C68.7576 31.0171 69.0233 30.9902 69.289 30.9902C69.3132 30.9902 69.3373 30.9902 69.3615 30.9902C69.3856 30.9902 69.4098 30.9902 69.434 30.9902C69.4581 30.9902 69.4702 30.9902 69.4702 30.9902C69.4944 30.9902 69.5185 30.9902 69.5427 30.9902C69.5668 30.9902 69.591 30.9902 69.6151 30.9902C69.7359 31.0171 69.8446 31.044 69.9413 31.0709C70.0621 31.0978 70.1828 31.1247 70.3036 31.1516C70.4003 31.1785 70.509 31.2188 70.6298 31.2726C70.7505 31.2995 70.8593 31.3399 70.9559 31.3937C71.1733 31.5012 71.3786 31.6357 71.5719 31.7971C71.7652 31.9316 71.9463 32.1064 72.1155 32.3215C72.3087 32.5367 72.4778 32.7653 72.6228 33.0074C72.7677 33.2494 72.8885 33.5184 72.9851 33.8142C73.1059 34.0832 73.1905 34.3656 73.2388 34.6614C73.2871 34.9572 73.3113 35.2531 73.3113 35.5489V58.4231C73.3113 59.0417 73.2146 59.6065 73.0214 60.1175C72.8281 60.6554 72.5261 61.1395 72.1155 61.5699C71.7289 62.0271 71.282 62.3498 70.7747 62.5381C70.2916 62.7532 69.7722 62.8608 69.2165 62.8608V62.9012Z" fill="white"/>
<path d="M49.4772 30.9906C49.5496 31.0175 49.6221 31.0309 49.6946 31.0309C49.7671 31.004 49.8516 30.9771 49.9482 30.9502C50.0207 30.9502 50.0932 30.9502 50.1657 30.9502C50.2381 30.9233 50.3106 30.9099 50.3831 30.9099C50.528 30.883 50.673 30.8696 50.8179 30.8696C50.9629 30.8427 51.1078 30.8292 51.2528 30.8292C51.7117 30.8292 52.1466 30.8696 52.5573 30.9502C52.9679 31.0309 53.3665 31.152 53.7531 31.3133C54.1396 31.4747 54.4899 31.6764 54.8039 31.9185C55.1421 32.1605 55.4562 32.4295 55.7461 32.7253V32.806L59.0798 30.8292C59.1281 30.8292 59.1643 30.8292 59.1885 30.8292C59.2368 30.8023 59.2731 30.7754 59.2972 30.7485C59.3455 30.7216 59.3938 30.7082 59.4422 30.7082C59.4905 30.6813 59.5388 30.6678 59.5871 30.6678C59.6113 30.6678 59.6354 30.6678 59.6596 30.6678C59.6837 30.6678 59.7079 30.6544 59.7321 30.6275C59.7321 30.6275 59.7441 30.6275 59.7683 30.6275C59.7924 30.6275 59.8166 30.6275 59.8408 30.6275C59.8649 30.6275 59.8891 30.6275 59.9132 30.6275C59.9374 30.6275 59.9615 30.6141 59.9857 30.5872C59.9857 30.5872 59.9978 30.5872 60.0219 30.5872C60.0461 30.5872 60.0703 30.5872 60.0944 30.5872C60.2152 30.5872 60.336 30.6141 60.4568 30.6678C60.6017 30.6947 60.7346 30.7351 60.8554 30.7889C60.9762 30.8427 61.097 30.9099 61.2177 30.9906C61.3385 31.0713 61.4472 31.1654 61.5439 31.273C61.7854 31.5419 61.9908 31.8378 62.1599 32.1605C62.3531 32.4564 62.5102 32.7791 62.631 33.1287C62.7517 33.4784 62.8484 33.8415 62.9209 34.218C62.9933 34.5676 63.0296 34.9307 63.0296 35.3072V48.822C63.0296 49.5212 62.9329 50.1398 62.7397 50.6777C62.5706 51.2156 62.3048 51.6863 61.9425 52.0897C61.5801 52.52 61.1815 52.8293 60.7467 53.0176C60.336 53.2059 59.8891 53.3 59.4059 53.3C59.3818 53.3 59.3576 53.3 59.3335 53.3C59.3093 53.3 59.2851 53.3 59.261 53.3C59.261 53.3 59.2489 53.3 59.2247 53.3C59.2006 53.2731 59.1764 53.2596 59.1523 53.2596C59.1281 53.2596 59.104 53.2596 59.0798 53.2596C59.0798 53.2596 59.0677 53.2596 59.0436 53.2596L55.7461 51.2022V51.4039C55.4803 51.7266 55.1784 52.009 54.8401 52.2511C54.5261 52.4931 54.1879 52.6949 53.8255 52.8562C53.4632 52.9638 53.0646 53.0579 52.6297 53.1386C52.1949 53.2462 51.7359 53.3 51.2528 53.3C51.0837 53.3 50.9145 53.2865 50.7454 53.2596C50.6005 53.2596 50.4435 53.2462 50.2744 53.2193C50.1777 53.2193 50.0811 53.2059 49.9845 53.179C49.912 53.179 49.8395 53.1655 49.7671 53.1386C49.6704 53.1386 49.5738 53.1252 49.4772 53.0983C49.4047 53.0983 49.3202 53.0848 49.2235 53.0579C48.6679 52.9772 48.1123 52.8159 47.5566 52.5738C47.0252 52.3318 46.5058 52.009 45.9985 51.6056C45.4912 51.2022 45.008 50.745 44.549 50.234C44.1142 49.723 43.7035 49.1447 43.317 48.4992C43.0754 48.042 42.8459 47.5848 42.6285 47.1276C42.4352 46.6435 42.2782 46.1459 42.1574 45.6349C42.0125 45.097 41.9038 44.5591 41.8313 44.0212C41.783 43.4833 41.7588 42.932 41.7588 42.3672C41.7588 42.3403 41.7588 42.3134 41.7588 42.2865C41.7588 42.2596 41.7588 42.2327 41.7588 42.2058C41.7588 42.2058 41.7588 42.1924 41.7588 42.1655C41.7588 42.1386 41.7588 42.1117 41.7588 42.0848C41.7588 42.031 41.7588 41.9772 41.7588 41.9234C41.7588 41.8696 41.7588 41.8158 41.7588 41.762C41.8071 40.3904 42.0246 39.1129 42.4111 37.9295C42.8218 36.7461 43.4015 35.6569 44.1504 34.6618C44.8993 33.6666 45.7086 32.8732 46.5783 32.2815C47.4721 31.663 48.4384 31.2461 49.4772 31.0309V30.9906ZM49.7671 42.2865C49.7671 42.5554 49.7791 42.7975 49.8033 43.0127C49.8275 43.2278 49.8758 43.4295 49.9482 43.6178C49.9966 43.8061 50.069 43.9943 50.1657 44.1826C50.2623 44.3708 50.371 44.5457 50.4918 44.707C50.6126 44.8953 50.7454 45.0567 50.8904 45.1911C51.0595 45.3256 51.2286 45.4332 51.3977 45.5139C51.591 45.6215 51.7721 45.7021 51.9412 45.7559C52.1345 45.7828 52.3157 45.7963 52.4848 45.7963C52.5089 45.7963 52.5331 45.7963 52.5573 45.7963C52.5814 45.7963 52.6056 45.7963 52.6297 45.7963C52.6539 45.7963 52.678 45.7963 52.7022 45.7963C52.8955 45.7694 53.0887 45.7156 53.282 45.6349C53.4994 45.5542 53.7047 45.4466 53.898 45.3122C54.0913 45.1777 54.2604 45.0163 54.4053 44.8281C54.5744 44.6398 54.7194 44.4112 54.8401 44.1422C54.8885 44.0616 54.9247 43.9809 54.9489 43.9002C54.9972 43.7926 55.0334 43.685 55.0576 43.5774C55.1059 43.4968 55.13 43.4026 55.13 43.295C55.1542 43.1875 55.1784 43.0799 55.2025 42.9723C55.2025 42.9454 55.2025 42.9185 55.2025 42.8916C55.2025 42.8647 55.2146 42.8244 55.2387 42.7706C55.2387 42.7437 55.2387 42.7168 55.2387 42.6899C55.2387 42.663 55.2387 42.6361 55.2387 42.6092C55.2387 42.5823 55.2387 42.5554 55.2387 42.5285C55.2387 42.5016 55.2508 42.4613 55.275 42.4075C55.275 42.3806 55.275 42.3537 55.275 42.3268C55.275 42.2999 55.275 42.273 55.275 42.2461C55.275 42.2192 55.275 42.2058 55.275 42.2058C55.275 42.1789 55.275 42.152 55.275 42.1251C55.275 42.0982 55.275 42.0848 55.275 42.0848C55.275 42.0579 55.275 42.031 55.275 42.0041C55.2508 41.9772 55.2387 41.9637 55.2387 41.9637C55.2387 41.9368 55.2387 41.91 55.2387 41.8831C55.2387 41.8562 55.2387 41.8427 55.2387 41.8427C55.2387 41.8158 55.2387 41.7889 55.2387 41.762C55.1904 41.4124 55.118 41.1031 55.0213 40.8342C54.9247 40.5383 54.8039 40.2694 54.659 40.0273C54.514 39.8121 54.3449 39.6239 54.1517 39.4625C53.9826 39.2742 53.7893 39.1263 53.5719 39.0187C53.5236 38.9918 53.4752 38.9784 53.4269 38.9784C53.3786 38.9515 53.3303 38.9246 53.282 38.8977C53.2337 38.8977 53.1854 38.8977 53.137 38.8977C53.1129 38.8708 53.0766 38.8439 53.0283 38.817C53.0042 38.817 52.98 38.817 52.9559 38.817C52.9317 38.817 52.9075 38.8036 52.8834 38.7767C52.8592 38.7767 52.8351 38.7767 52.8109 38.7767C52.7868 38.7767 52.7626 38.7767 52.7384 38.7767C52.7143 38.7767 52.6901 38.7767 52.666 38.7767C52.6418 38.7767 52.6177 38.7632 52.5935 38.7363C52.5693 38.7363 52.5452 38.7363 52.521 38.7363C52.4969 38.7363 52.4727 38.7363 52.4486 38.7363C52.1345 38.7632 51.8325 38.8439 51.5426 38.9784C51.2769 39.1129 51.0233 39.3011 50.7817 39.5432C50.5401 39.7852 50.3348 40.0811 50.1657 40.4307C50.0207 40.7535 49.912 41.1434 49.8395 41.6007C49.8395 41.6276 49.8395 41.6545 49.8395 41.6813C49.8154 41.7082 49.8033 41.7351 49.8033 41.762C49.8033 41.762 49.8033 41.7755 49.8033 41.8024C49.8033 41.8293 49.8033 41.8562 49.8033 41.8831C49.8033 41.91 49.8033 41.9368 49.8033 41.9637C49.8033 41.9906 49.8033 42.0175 49.8033 42.0444C49.7791 42.0713 49.7671 42.0982 49.7671 42.1251C49.7671 42.1251 49.7671 42.1386 49.7671 42.1655C49.7671 42.1924 49.7671 42.2192 49.7671 42.2461C49.7671 42.273 49.7671 42.2999 49.7671 42.3268V42.2865Z" fill="white"/>
<path d="M35.8475 53.3403C35.2919 53.3134 34.7725 53.1924 34.2893 52.9772C33.8303 52.7889 33.3955 52.4796 32.9848 52.0493C32.5983 51.619 32.3084 51.1483 32.1151 50.6373C31.9219 50.0994 31.8252 49.5212 31.8252 48.9026V35.3879C31.8252 34.7962 31.9219 34.2314 32.1151 33.6935C32.3326 33.1556 32.6345 32.6715 33.021 32.2412C33.4317 31.7839 33.8666 31.4612 34.3256 31.2729C34.8087 31.0578 35.3281 30.9502 35.8837 30.9502C36.4393 30.9771 36.9466 31.0981 37.4056 31.3133C37.8888 31.5284 38.3236 31.8646 38.7102 32.3218C39.1208 32.7522 39.4228 33.2363 39.6161 33.7742C39.8093 34.2852 39.9059 34.85 39.9059 35.4686V48.8219C39.9059 49.4674 39.8093 50.0591 39.6161 50.597C39.4228 51.108 39.1208 51.5921 38.7102 52.0493C38.3236 52.4796 37.8888 52.7889 37.4056 52.9772C36.9225 53.1924 36.4031 53.2999 35.8475 53.2999V53.3403Z" fill="white"/>
<path d="M2.89891 16.8704C2.9593 16.8704 3.00459 16.8704 3.03479 16.8704C3.09519 16.8368 3.14048 16.8031 3.17068 16.7695C3.23107 16.7695 3.27637 16.7695 3.30656 16.7695C3.36696 16.7359 3.41225 16.7023 3.44245 16.6687C3.53304 16.6014 3.62363 16.5678 3.71422 16.5678C3.83501 16.5342 3.9558 16.5006 4.07659 16.467C4.13698 16.467 4.18228 16.467 4.21247 16.467C4.27287 16.4333 4.33326 16.4165 4.39365 16.4165C4.42385 16.3829 4.46915 16.3661 4.52954 16.3661C4.58993 16.3661 4.63523 16.3661 4.66543 16.3661C4.72582 16.3661 4.77112 16.3661 4.80131 16.3661C4.86171 16.3661 4.9221 16.3493 4.98249 16.3157C5.01269 16.3157 5.05799 16.3157 5.11838 16.3157C5.17877 16.3157 5.22407 16.3157 5.25427 16.3157C5.76761 16.3157 6.26586 16.3997 6.74901 16.5678C7.23217 16.7359 7.70022 16.9881 8.15317 17.3242C8.60613 17.6604 8.98359 18.0639 9.28556 18.5345C9.61772 19.0052 9.88949 19.5263 10.1009 20.0978L15.4004 36.3861L20.7453 20.0474C20.9265 19.5095 21.168 19.0052 21.47 18.5345C21.8022 18.0639 22.1947 17.6604 22.6477 17.3242C23.1007 16.9881 23.5687 16.7359 24.0519 16.5678C24.535 16.3997 25.0484 16.3157 25.5919 16.3157C25.6825 16.3157 25.7731 16.3157 25.8637 16.3157C25.9543 16.3157 26.06 16.3325 26.1807 16.3661C26.2713 16.3661 26.3619 16.3829 26.4525 16.4165C26.5431 16.4165 26.6337 16.4333 26.7243 16.467C26.9055 16.5006 27.0866 16.5678 27.2678 16.6687C27.4792 16.7359 27.6906 16.82 27.902 16.9208C28.3851 17.1898 28.8079 17.5091 29.1702 17.8789C29.5326 18.2488 29.8497 18.669 30.1214 19.1397C30.363 19.5767 30.5442 20.0474 30.665 20.5516C30.816 21.0559 30.8915 21.5602 30.8915 22.0645C30.8915 22.2662 30.8764 22.4679 30.8462 22.6696C30.8462 22.8377 30.8311 23.0058 30.8009 23.1739C30.7707 23.342 30.7254 23.5269 30.665 23.7286C30.6046 23.8967 30.5442 24.0648 30.4838 24.2329L20.3376 49.5478C20.1263 50.1193 19.8998 50.6236 19.6582 51.0607C19.4166 51.4641 19.1751 51.8003 18.9335 52.0692C18.6617 52.3718 18.3748 52.6071 18.0729 52.7752C17.7709 52.9433 17.4538 53.0778 17.1217 53.1786C16.9707 53.2459 16.8046 53.2795 16.6234 53.2795C16.4724 53.3131 16.3214 53.3467 16.1705 53.3804C16.0195 53.414 15.8685 53.4308 15.7175 53.4308C15.5665 53.4644 15.4155 53.4812 15.2645 53.4812C14.721 53.4812 14.2228 53.3972 13.7698 53.2291C13.3168 53.061 12.879 52.8425 12.4562 52.5735C12.0637 52.2373 11.6862 51.8171 11.3238 51.3128C10.9917 50.8085 10.7048 50.237 10.4632 49.5982L0.317068 24.1825C0.347265 24.1488 0.347265 24.0984 0.317068 24.0312C0.286871 23.9303 0.256674 23.8295 0.226477 23.7286C0.19628 23.6278 0.181182 23.5269 0.181182 23.426C0.150985 23.3252 0.120788 23.2243 0.0905908 23.1235C0.0905908 23.0899 0.0905908 23.0562 0.0905908 23.0226C0.0905908 22.989 0.0754923 22.9386 0.0452954 22.8713C0.0452954 22.8377 0.0452954 22.8041 0.0452954 22.7705C0.0452954 22.7032 0.0452954 22.6528 0.0452954 22.6192C0.0452954 22.552 0.0452954 22.5015 0.0452954 22.4679C0.0452954 22.4343 0.0301969 22.3839 0 22.3166C0 22.283 0 22.2494 0 22.2158C0 22.1485 0 22.0981 0 22.0645C0 21.5266 0.0754923 21.0055 0.226477 20.5012C0.347265 19.9969 0.513348 19.5263 0.724726 19.0892C0.966302 18.6186 1.26827 18.2151 1.63063 17.8789C1.993 17.5091 2.41575 17.1898 2.89891 16.9208V16.8704Z" fill="white"/>
<path d="M68.2958 17.3259C69.4931 17.3259 70.4785 16.3511 70.3202 15.1642C69.8188 11.4054 68.0196 7.88672 65.1714 5.17892C61.7828 1.95733 57.1869 0.147461 52.3947 0.147461C47.6025 0.147461 43.0065 1.95733 39.6179 5.17892C36.7697 7.88672 34.9706 11.4054 34.4692 15.1642C34.3108 16.3511 35.2962 17.3259 36.4936 17.3259V17.3259C37.6909 17.3259 38.6424 16.348 38.8502 15.1689C39.3194 12.5062 40.6495 10.0279 42.6839 8.09378C45.2593 5.64526 48.7524 4.2697 52.3947 4.2697C56.0369 4.2697 59.53 5.64526 62.1055 8.09378C64.1398 10.0279 65.47 12.5062 65.9391 15.1689C66.1469 16.348 67.0984 17.3259 68.2958 17.3259V17.3259Z" fill="white"/>
<path fill-rule="evenodd" clip-rule="evenodd" d="M35.4096 28.2793C31.2365 22.4822 31.6461 19.1459 34.7872 18.9305C40.0226 18.5716 39.3151 23.7427 35.4096 28.2793ZM37.1111 22.0108C37.1111 22.8733 36.4221 23.5725 35.5722 23.5725C34.7222 23.5725 34.0332 22.8733 34.0332 22.0108C34.0332 21.1483 34.7222 20.4491 35.5722 20.4491C36.4221 20.4491 37.1111 21.1483 37.1111 22.0108Z" fill="white"/>
<path fill-rule="evenodd" clip-rule="evenodd" d="M69.0081 28.3223C64.8351 22.5252 65.2447 19.1889 68.3857 18.9735C73.621 18.6145 72.9136 23.7856 69.0081 28.3223ZM70.7099 22.0538C70.7099 22.9163 70.021 23.6154 69.171 23.6154C68.3211 23.6154 67.6321 22.9163 67.6321 22.0538C67.6321 21.1913 68.3211 20.4921 69.171 20.4921C70.021 20.4921 70.7099 21.1913 70.7099 22.0538Z" fill="white"/>
</svg>
